<svg width="25" height="25" viewBox="0 0 25 25" fill="none" xmlns="http://www.w3.org/2000/svg">
<path d="M12.9453 20.2387C14.9786 18.372 16.487 16.6762 17.4703 15.1512C18.4536 13.6262 18.9453 12.272 18.9453 11.0887C18.9453 9.27201 18.3661 7.7845 17.2078 6.62617C16.0495 5.46784 14.6286 4.88867 12.9453 4.88867C11.262 4.88867 9.84115 5.46784 8.68281 6.62617C7.52448 7.7845 6.94531 9.27201 6.94531 11.0887C6.94531 12.272 7.43698 13.6262 8.42031 15.1512C9.40365 16.6762 10.912 18.372 12.9453 20.2387ZM12.9453 22.8887C10.262 20.6053 8.25781 18.4845 6.93281 16.5262C5.60781 14.5678 4.94531 12.7553 4.94531 11.0887C4.94531 8.58867 5.74948 6.59701 7.35781 5.11367C8.96615 3.63034 10.8286 2.88867 12.9453 2.88867C15.062 2.88867 16.9245 3.63034 18.5328 5.11367C20.1411 6.59701 20.9453 8.58867 20.9453 11.0887C20.9453 12.7553 20.2828 14.5678 18.9578 16.5262C17.6328 18.4845 15.6286 20.6053 12.9453 22.8887Z" fill="#1C1B1F"/>
<circle cx="13" cy="11" r="3" fill="#1C1B1F"/>
</svg>
