<?xml version="1.0" encoding="utf-8"?>
<!-- Generator: Adobe Illustrator 28.0.0, SVG Export Plug-In . SVG Version: 6.00 Build 0)  -->
<svg version="1.1" xmlns="http://www.w3.org/2000/svg" xmlns:xlink="http://www.w3.org/1999/xlink" x="0px" y="0px"
	 viewBox="0 0 1133.86 566.93" style="enable-background:new 0 0 1133.86 566.93;" xml:space="preserve">
<style type="text/css">
	.st0{display:none;}
	.st1{display:inline;fill:#C5D7EC;}
	.st2{fill:none;stroke:#579512;stroke-width:4;stroke-linecap:round;stroke-miterlimit:10;}
	.st3{fill:none;stroke:url(#SVGID_1_);stroke-width:12;stroke-linecap:round;stroke-miterlimit:10;}
	.st4{fill:#039399;}
	.st5{fill:#579512;stroke:#579512;stroke-width:9;stroke-linecap:round;stroke-miterlimit:10;}
	.st6{fill:#579512;}
	.st7{fill:none;}
	.st8{fill:#0A2147;}
</style>
<g id="图层_3" class="st0">
	<rect class="st1" width="1134" height="567"/>
</g>
<g id="图层_2">
	<g>
		<path class="st2" d="M68.33,441.9c0,0,40.22,7.1,71.44,7.1S214,436,263,436s92.67,5.9,92.67,5.9"/>
		<linearGradient id="SVGID_1_" gradientUnits="userSpaceOnUse" x1="665" y1="437" x2="665" y2="182">
			<stop  offset="0" style="stop-color:#579512"/>
			<stop  offset="1" style="stop-color:#089398"/>
		</linearGradient>
		<path class="st3" d="M593,236.11h-28.76c-0.07,0-0.1-0.09-0.04-0.13l30.94-20.78c0.01-0.01,0.03-0.01,0.04-0.01H794
			c49,0,103-27.19,103-27.19 M433,431c0,0,41.14-5,72.57-14.16s56.23-20.5,64.57-23.22c1.05-0.34,1.66-1.41,1.4-2.46l-8.92-36.37
			c-0.32-1.31,0.7-2.57,2.09-2.57H591c1.19,0,2-0.93,2-2.09V236.6"/>
		<g>
			<g>
				<path class="st4" d="M680,168H577.31c-1.2,0-2.18,0.8-2.18,2v3c0,1.2,0.98,2,2.18,2l12.96,1c1.08,0,2,0.93,2.16,2l0.57,4.47
					c0.19,1.33-0.66,2.51-2,2.5l-17.21-0.23c-2.13-0.02-3.03,2.7-1.3,3.95L591.58,199c0.37,0.27,1.96,1,2.42,1h86"/>
				<path class="st4" d="M645.93,168h102.69c1.2,0,2.18,0.8,2.18,2v3c0,1.2-0.98,2-2.18,2l-12.96,1c-1.08,0-2,0.93-2.16,2
					l-0.57,4.47c-0.19,1.33,0.66,2.51,2,2.5l17.21-0.23c2.13-0.02,3.03,2.7,1.3,3.95L734.35,199c-0.37,0.27-1.96,1-2.42,1h-86"/>
			</g>
		</g>
		<path class="st4" d="M665,156H557.33c0,0,49.17-13.5,70.17-31.5S665,32.67,665,32.67V156z"/>
		<path class="st4" d="M665,156h107.67c0,0-49.17-13.5-70.17-31.5S665,32.67,665,32.67V156z"/>
		<g>
			<path class="st5" d="M1065,442.9c0,0-98.52-32.9-148.8-32.9c-50.28,0-118.01,32.9-158.04,32.9c-40.02,0-83.12-16.45-122.12-16.45
				s-84.15,16.45-116.99,16.45s-138.86,0-138.86,0"/>
			<path class="st6" d="M1064.8,447.31c0,0-98.52-32.9-148.8-32.9c-50.28,0-118.01,32.9-158.04,32.9s-83.12-16.45-122.12-16.45
				c-39,0-84.15,16.45-116.99,16.45c-32.84,0-138.86,0-138.86,0"/>
		</g>
	</g>
</g>
<g id="图层_1">
	<g>
		<rect x="46.26" y="156" class="st7" width="1057.74" height="272.15"/>
		<path class="st8" d="M57,382.14c-0.69-13.66-1.6-24.8-2.72-33.42c16.9,8,32.26,11.99,46.06,11.99c5.52,0,10.67-0.88,15.46-2.63
			s8.32-4.22,10.61-7.41c2.28-3.19,3.43-6.76,3.43-10.71c0-3.05-0.55-5.79-1.65-8.22c-1.65-3.32-4.4-6.78-8.24-10.38
			c-4.93-4.94-13.73-13.07-26.39-24.39c-6.03-5.48-10.2-9.39-12.49-11.72c-5.17-5.12-9.14-9.72-11.9-13.81
			c-2.76-4.09-4.74-8.15-5.95-12.2c-1.21-4.04-1.81-8.36-1.81-12.94c0-8.44,2.26-16.37,6.79-23.79c4.53-7.41,11.3-13.21,20.31-17.38
			c9.01-4.18,20.38-6.27,34.09-6.27c12.33,0,26.22,1.57,41.66,4.72c0.43,9.35,1.29,20.04,2.59,32.07
			c-13.43-5.39-25.82-8.09-37.19-8.09c-8.44,0-15.34,2-20.72,6c-5.38,4-8.07,8.65-8.07,13.95c0,1.44,0.19,2.94,0.56,4.51
			c0.38,1.57,0.94,3.1,1.69,4.58s2.09,3.42,4.01,5.79c1.92,2.38,4.74,5.17,8.44,8.36c3.7,3.19,6.87,5.77,9.5,7.75l15.96,15.09
			c4.04,3.5,7.66,6.92,10.85,10.24c3.19,3.33,5.92,6.51,8.2,9.57c2.28,3.06,4.07,5.98,5.36,8.76c1.29,2.79,2.26,5.64,2.91,8.56
			c0.65,2.92,0.97,6,0.97,9.23c0,7.55-1.68,14.67-5.05,21.36c-3.36,6.69-8.2,12.2-14.49,16.51c-6.3,4.31-13.2,7.3-20.7,8.96
			c-7.5,1.66-15.44,2.49-23.8,2.49c-5.52,0-11.95-0.5-19.28-1.48C78.65,386.81,68.98,384.92,57,382.14z"/>
		<path class="st8" d="M197.63,386.04l2.33-31.94l3.24-70.75l1.55-51.35c0.08-4.67,0.13-9.39,0.13-14.15c0-3.5-0.04-8.76-0.13-15.77
			c11.04,0.18,20.01,0.27,26.91,0.27c5.52,0,13.19-0.13,23.03-0.4s17.64-0.4,23.42-0.4c11.9,0,20.66,0.9,26.26,2.7
			c5.95,1.98,11.17,5.08,15.65,9.3c4.48,4.22,7.89,9.3,10.22,15.23c2.59,6.65,3.88,13.79,3.88,21.43c0,11.59-2.78,22.12-8.34,31.6
			c-5.56,9.48-13.26,16.55-23.09,21.23c-9.83,4.67-20.74,7.01-32.73,7.01c-5.87,0-12.12-0.63-18.76-1.89
			c-1.9-9.34-4.06-18.1-6.47-26.28c5.33,1.17,10.62,1.75,15.87,1.75c7.14,0,13.34-1.12,18.58-3.37c5.25-2.24,9.42-5.91,12.52-10.98
			c3.1-5.07,4.65-10.8,4.65-17.18c0-3.77-0.65-7.23-1.94-10.38c-1.29-3.14-3.16-5.66-5.62-7.55c-2.45-1.89-5.16-3.17-8.13-3.84
			c-2.97-0.67-7.21-1.01-12.72-1.01c-4.82,0-9.68,0.09-14.58,0.27c-4.9,0.18-9.25,0.27-13.04,0.27c-1.03,17.61-1.8,34.46-2.31,50.54
			l-1.54,51.48c-0.52,18.24-0.77,31.63-0.77,40.16c0,3.23,0.04,7.91,0.13,14.02l-18.77-0.27
			C214.63,385.78,208.16,385.87,197.63,386.04z"/>
		<path class="st8" d="M348.66,386.04l2.95-30.46l7.49-107l2.61-46.49c10.78,0.18,18.66,0.27,23.63,0.27
			c3.99,0,11.27-0.09,21.82-0.27c1.21,7.28,2.12,12.44,2.72,15.5c0.6,3.06,1.78,7.95,3.52,14.69c1.74,6.74,3.97,14.91,6.7,24.53
			c4.01,14.55,7.6,28.93,10.78,43.12l8.62,38.54l15.14-49.46l22.03-64.28c0.75-2.16,1.52-4.65,2.32-7.48s2.13-7.88,4.01-15.16
			c8.99,0.18,16.99,0.27,24.01,0.27c4.68,0,12.16-0.09,22.43-0.27c-1.06,25.88-1.85,54.47-2.37,85.78
			c-0.53,31.31-0.79,54.69-0.79,70.15c0,7.46,0.07,16.8,0.23,28.03c-7.48-0.18-12.57-0.27-15.29-0.27c-3.93,0-9.14,0.09-15.63,0.27
			c0.45-9.16,0.75-16.71,0.9-22.64l1.91-80.19c0.22-11.32,0.34-22.46,0.34-33.42l-0.11-10.92l-41.61,131.13l-4.85,16.04
			c-7.35-0.18-12.39-0.27-15.12-0.27c-3.41,0-8.76,0.09-16.03,0.27l-19.48-83.02c-0.68-2.96-2.27-9.16-4.76-18.6l-7.02-27.49
			c-0.68-2.6-1.19-4.74-1.53-6.4c-0.34-1.66-1.08-5.37-2.21-11.12l-1.47,17.25c-0.38,5.48-0.94,14.65-1.7,27.49l-4.42,83.55
			c-0.15,4.13-0.27,10.24-0.34,18.33l-14.6-0.27C360.99,385.78,356.05,385.87,348.66,386.04z"/>
		<path class="st8" d="M618.49,386.04c0.18-2.38,0.27-4.3,0.27-5.74l0.54-13.75c7.53-7.02,14.42-13.81,20.66-20.37
			c6.24-6.55,12.61-13.58,19.12-21.07c6.51-7.49,11.42-13.53,14.74-18.11c2.71-3.7,4.52-6.48,5.42-8.33c0.9-1.85,1.51-3.42,1.81-4.7
			c0.3-1.29,0.45-2.59,0.45-3.9c0-3.45-1-6.25-2.98-8.42c-1.99-2.16-4.72-3.86-8.18-5.08c-3.47-1.22-7.49-1.83-12.07-1.83
			c-4.22,0-8.8,0.39-13.74,1.16c-4.94,0.77-11.3,2.17-19.07,4.21l1.72-9.51c0.36-2.26,0.9-6.06,1.63-11.39
			c13.92-2.64,27.3-3.96,40.14-3.96c5.84,0,11.48,0.58,16.9,1.74c5.42,1.16,10.26,3.14,14.51,5.93c4.25,2.79,7.35,6.03,9.31,9.7
			c1.96,3.67,2.94,7.52,2.94,11.54c0,2.39-0.23,4.75-0.68,7.11c-0.45,2.35-1.1,4.51-1.94,6.45c-1.63,3.89-3.69,7.82-6.2,11.77
			c-2.5,3.96-6.42,9.23-11.75,15.82c-5.33,6.59-11.15,13.34-17.45,20.25c-6.3,6.91-13.31,14.16-21.02,21.75h8.23l20.16-0.09
			c6.69,0,11.6-0.08,14.74-0.24c3.13-0.16,6.9-0.46,11.3-0.89c-0.12,1.95-0.32,4.47-0.59,7.58c-0.27,3.11-0.59,7.24-0.95,12.38
			c-13.68-0.12-27.9-0.19-42.67-0.19C645.7,385.86,630.61,385.92,618.49,386.04z"/>
		<path class="st8" d="M782.65,255.25c9.52,0,17.67,2.13,24.45,6.4c6.78,4.27,12.04,11.08,15.77,20.43
			c3.74,9.35,5.6,20.28,5.6,32.77c0,9.86-1.15,19.68-3.44,29.47c-2.29,9.79-5.46,17.83-9.49,24.11
			c-4.04,6.28-9.57,11.16-16.59,14.64c-7.02,3.48-14.54,5.23-22.55,5.23c-7.71,0-14.6-1.55-20.66-4.66s-10.98-7.47-14.78-13.09
			c-3.8-5.62-6.45-11.93-7.96-18.93c-1.51-7-2.26-14.2-2.26-21.61c0-10.23,1.14-20.31,3.43-30.23c2.29-9.92,5.59-18.19,9.9-24.81
			c4.31-6.62,9.9-11.57,16.77-14.83C767.74,256.89,775,255.25,782.65,255.25z M781.98,274.75c-2.29,0-4.54,0.47-6.75,1.41
			c-2.21,0.94-4.35,2.5-6.43,4.67c-2.08,2.17-3.8,4.7-5.16,7.59c-1.36,2.89-2.6,6.39-3.71,10.51c-1.12,4.12-1.99,9.02-2.63,14.7
			c-0.63,5.69-0.95,11.48-0.95,17.39c0,8.55,0.83,15.51,2.49,20.88c1.66,5.37,4.13,9.54,7.43,12.49c3.29,2.96,7.08,4.43,11.37,4.43
			c2.35,0,4.65-0.49,6.88-1.46c2.23-0.97,4.51-2.81,6.84-5.51c2.33-2.7,4.41-6.64,6.25-11.83c1.84-5.18,3.19-10.87,4.03-17.06
			s1.27-12.46,1.27-18.8c0-8.73-0.8-15.93-2.4-21.58c-1.6-5.66-4-10.04-7.2-13.15C790.1,276.3,786.33,274.75,781.98,274.75z"/>
		<path class="st8" d="M844.3,386.04c0.18-2.38,0.27-4.3,0.27-5.74l0.54-13.75c7.53-7.02,14.42-13.81,20.66-20.37
			c6.24-6.55,12.61-13.58,19.12-21.07c6.51-7.49,11.42-13.53,14.74-18.11c2.71-3.7,4.52-6.48,5.42-8.33c0.9-1.85,1.51-3.42,1.81-4.7
			c0.3-1.29,0.45-2.59,0.45-3.9c0-3.45-1-6.25-2.98-8.42c-1.99-2.16-4.72-3.86-8.18-5.08c-3.47-1.22-7.49-1.83-12.07-1.83
			c-4.22,0-8.8,0.39-13.74,1.16c-4.94,0.77-11.3,2.17-19.07,4.21l1.72-9.51c0.36-2.26,0.9-6.06,1.63-11.39
			c13.92-2.64,27.3-3.96,40.14-3.96c5.84,0,11.48,0.58,16.9,1.74c5.42,1.16,10.26,3.14,14.51,5.93c4.25,2.79,7.35,6.03,9.31,9.7
			c1.96,3.67,2.94,7.52,2.94,11.54c0,2.39-0.23,4.75-0.68,7.11c-0.45,2.35-1.1,4.51-1.94,6.45c-1.63,3.89-3.69,7.82-6.2,11.77
			c-2.5,3.96-6.42,9.23-11.75,15.82c-5.33,6.59-11.15,13.34-17.45,20.25c-6.3,6.91-13.31,14.16-21.02,21.75h8.23l20.16-0.09
			c6.69,0,11.6-0.08,14.74-0.24c3.13-0.16,6.9-0.46,11.3-0.89c-0.12,1.95-0.32,4.47-0.59,7.58c-0.27,3.11-0.59,7.24-0.95,12.38
			c-13.68-0.12-27.9-0.19-42.67-0.19C871.51,385.86,856.42,385.92,844.3,386.04z"/>
		<path class="st8" d="M962.9,384.26l-0.45-7.44c-0.12-2.01-0.27-4.02-0.45-6.03c-0.18-2.01-0.48-4.68-0.9-8
			c11.27,3.39,20.91,5.08,28.93,5.08c5.66,0,10.83-1,15.5-3.01c4.67-2.01,8.32-4.94,10.94-8.8c2.62-3.86,3.93-8.02,3.93-12.48
			c0-3.89-1.01-7.28-3.03-10.17c-2.02-2.89-5.12-5.1-9.31-6.64c-4.19-1.54-9.69-2.31-16.5-2.31c-3.92,0-7.77,0.17-11.57,0.52
			c-3.8,0.35-8.89,1.02-15.28,2.03c2.52-28.44,4.35-51.6,5.49-69.49c16.16,0.13,29.42,0.19,39.79,0.19
			c13.74,0,26.77-0.06,39.07-0.19c-0.42,5.02-0.66,8.79-0.72,11.3l-0.27,9.04c-5.37-0.44-13.71-0.69-25.04-0.75l-15.91-0.19
			c-2.65,0-6.33,0.03-11.03,0.09l-2.86,32.58c5.12-0.63,9.46-0.94,13.01-0.94c8.85,0,16.85,1.33,23.99,4
			c7.14,2.67,12.39,6.8,15.77,12.38c3.37,5.59,5.06,11.74,5.06,18.46c0,6.66-1.55,13.01-4.66,19.07c-3.1,6.06-7.4,10.99-12.88,14.78
			c-5.48,3.8-11.81,6.58-18.98,8.33c-7.17,1.76-14.52,2.64-22.06,2.64c-2.65,0-5.92-0.19-9.81-0.56c-3.89-0.38-7.13-0.79-9.72-1.22
			C970.34,386.08,967,385.32,962.9,384.26z"/>
	</g>
	<g>
		<path class="st8" d="M35.21,516.81l0.72-13.42c0.39-7.33,0.67-14.13,0.84-20.4c0.17-6.27,0.25-10.64,0.25-13.1l-0.03-4.11
			c2.42,0.05,4.13,0.08,5.13,0.08c0.76,0,2.3-0.02,4.64-0.08l-0.81,16.86l-0.09,3.89H66.8l0.38-10.11c0.08-3.47,0.13-5.75,0.13-6.85
			v-3.78l5.15,0.08c0.45,0,1.99-0.02,4.62-0.08l-1.02,20.38l-0.43,15.11l-0.11,8.86c-0.04,3.64-0.06,5.87-0.06,6.69l-4.81-0.08
			c-0.6,0-2.3,0.03-5.12,0.08c0.54-7.05,0.88-14.47,1.02-22.25H45.53l-0.43,13.76l-0.12,8.49l-5.05-0.08
			C39.37,516.74,37.79,516.76,35.21,516.81z"/>
		<path class="st8" d="M85.92,487.13c0.29-1.79,0.47-3.05,0.54-3.78c0.07-0.72,0.2-1.82,0.38-3.29c2.79-0.8,5.25-1.36,7.39-1.68
			c2.13-0.32,4.2-0.49,6.19-0.49c2.26,0,4.33,0.32,6.22,0.95c1.89,0.63,3.37,1.65,4.43,3.05c1.07,1.4,1.6,3.4,1.6,6.02
			c0,1.42-0.16,5.04-0.49,10.86s-0.52,11.83-0.58,18.04c-1.56-0.05-3-0.08-4.31-0.08c-1.25,0-2.72,0.03-4.41,0.08
			c0.27-3.02,0.49-6.51,0.65-10.47l0.4-9.31c-0.78,0.62-1.38,1.06-1.79,1.31c-0.41,0.25-0.87,0.48-1.39,0.69
			c-0.51,0.21-1.42,0.54-2.71,0.97c-1.29,0.44-2.33,0.82-3.11,1.14s-1.48,0.69-2.11,1.1c-0.63,0.41-1.16,0.87-1.59,1.38
			c-0.43,0.51-0.75,1.05-0.94,1.61s-0.29,1.17-0.29,1.81c0,1.05,0.25,1.95,0.75,2.71c0.5,0.76,1.13,1.29,1.89,1.59
			c0.76,0.3,1.65,0.45,2.68,0.45c0.66,0,1.35-0.06,2.08-0.19c0.73-0.12,1.71-0.44,2.94-0.93c-0.43,1.42-0.93,3.54-1.51,6.36
			c-1.46,0.3-2.62,0.49-3.48,0.56c-0.86,0.08-1.66,0.11-2.4,0.11c-2.59,0-4.71-0.42-6.37-1.27c-1.66-0.85-2.89-2.19-3.68-4.04
			c-0.79-1.84-1.19-3.7-1.19-5.57c0-1.07,0.15-2.13,0.46-3.18c0.31-1.05,0.76-2.01,1.36-2.88c0.6-0.87,1.37-1.71,2.31-2.52
			c0.94-0.81,2.31-1.59,4.1-2.36c1.79-0.76,4.15-1.53,7.09-2.3c0.78-0.2,1.59-0.44,2.43-0.73c0.84-0.29,1.52-0.57,2.02-0.84
			c0.5-0.27,0.94-0.63,1.31-1.07c0.37-0.44,0.64-0.89,0.82-1.37c0.17-0.47,0.26-0.96,0.26-1.46c0-0.97-0.26-1.79-0.79-2.47
			c-0.52-0.67-1.2-1.14-2.03-1.4s-1.75-0.39-2.76-0.39C94.57,483.87,90.44,484.96,85.92,487.13z"/>
		<path class="st8" d="M119.08,516.81c0.47-5.66,0.86-12.01,1.18-19.07c0.32-7.05,0.5-13.37,0.54-18.96
			c1.89,0.05,3.4,0.08,4.53,0.08c1.34,0,2.75-0.02,4.25-0.08l-0.34,6.36c0.64-1.1,1.2-1.97,1.68-2.62c0.48-0.65,1.1-1.28,1.85-1.91
			s1.55-1.12,2.4-1.5c0.85-0.37,1.81-0.67,2.86-0.9c1.06-0.22,2.16-0.34,3.31-0.34c1.83,0,3.58,0.28,5.25,0.84
			c1.67,0.56,3.02,1.45,4.05,2.67c1.03,1.22,1.7,2.56,2.03,4c0.33,1.45,0.49,2.98,0.49,4.6c0,0.67-0.03,1.75-0.09,3.22l-0.64,16.34
			c-0.08,2.27-0.13,4.69-0.15,7.25c-1.62-0.05-3.01-0.08-4.16-0.08c-1.56,0-3.14,0.03-4.72,0.08c0.16-2.17,0.37-5.95,0.62-11.35
			s0.37-8.97,0.37-10.71c0-1.97-0.26-3.55-0.77-4.75s-1.31-2.11-2.38-2.73c-1.08-0.62-2.24-0.93-3.49-0.93
			c-1.23,0-2.38,0.29-3.45,0.86s-1.99,1.41-2.77,2.5c-0.82,1.12-1.46,2.5-1.91,4.15c-0.47,1.75-0.82,4.62-1.05,8.64
			c-0.21,3.57-0.37,8.34-0.5,14.32c-1.58-0.05-3.01-0.08-4.29-0.08C122.5,516.74,120.93,516.76,119.08,516.81z"/>
		<path class="st8" d="M161.88,524.7c4.62,1.84,8.62,2.77,12.01,2.77c1.29,0,2.51-0.19,3.66-0.58c1.15-0.39,2.11-0.95,2.89-1.68
			c0.78-0.73,1.39-1.73,1.82-2.99c0.43-1.26,0.72-2.71,0.86-4.37c0.14-1.65,0.26-4.16,0.34-7.52c-0.8,1.32-1.52,2.35-2.16,3.08
			s-1.4,1.4-2.29,1.98c-0.89,0.59-1.94,1.06-3.12,1.42c-1.19,0.36-2.44,0.54-3.76,0.54c-1.81,0-3.52-0.34-5.14-1.03
			c-1.62-0.68-3.06-1.76-4.33-3.23c-1.26-1.47-2.22-3.32-2.88-5.55c-0.66-2.23-0.99-4.55-0.99-6.97c0-3.46,0.54-6.74,1.62-9.83
			s2.66-5.63,4.74-7.63c2.08-1.99,4.31-3.36,6.68-4.11c2.37-0.75,5-1.12,7.9-1.12c1.6,0,3.42,0.12,5.45,0.36
			c2.03,0.24,4.72,0.72,8.07,1.44l-0.71,11.84l-0.65,14.83l-0.25,13.41c-0.06,1.52-0.22,2.98-0.46,4.39
			c-0.25,1.41-0.64,2.68-1.17,3.81c-0.53,1.13-1.21,2.14-2.03,3.01c-0.82,0.87-1.75,1.58-2.79,2.11c-1.04,0.54-2.32,0.98-3.85,1.33
			c-1.53,0.35-3.17,0.52-4.91,0.52c-1.87,0-3.99-0.15-6.37-0.45c-2.38-0.3-4.98-0.86-7.79-1.68L161.88,524.7z M184.36,486.27
			c-1.79-0.45-3.44-0.67-4.96-0.67c-2.67,0-4.88,0.59-6.62,1.78c-1.75,1.19-3.09,2.92-4.03,5.19c-0.94,2.27-1.42,4.68-1.42,7.23
			c0,1.87,0.29,3.61,0.86,5.22c0.58,1.61,1.47,2.83,2.7,3.65c1.22,0.82,2.57,1.24,4.05,1.24c1.05,0,2.03-0.2,2.94-0.6
			c0.91-0.4,1.74-1.01,2.48-1.83c0.74-0.82,1.39-1.85,1.96-3.07c0.56-1.22,0.96-2.6,1.2-4.14c0.24-1.54,0.42-3.46,0.54-5.77
			S184.28,489.44,184.36,486.27z"/>
		<path class="st8" d="M197.81,516.81c0.08-2.44,0.14-5.2,0.18-8.26c0.8-0.97,1.32-1.65,1.57-2.02l15.04-20.64H213
			c-2.73,0-5.12,0.04-7.18,0.11c-2.06,0.07-4.08,0.19-6.04,0.34c0.14-2.39,0.22-4.91,0.22-7.55c3.57,0.05,6.92,0.08,10.04,0.08
			c5.65,0,10.44-0.02,14.38-0.08c-0.08,1.05-0.2,3.95-0.34,8.71l-15.35,20.75l-1.05,1.31c2.05,0.1,3.77,0.15,5.17,0.15
			c3.01,0,5.09-0.02,6.23-0.06c1.14-0.04,2.54-0.11,4.2-0.21c-0.16,1.87-0.31,4.33-0.43,7.37c-3.61-0.05-7.7-0.08-12.25-0.08
			C205.72,516.74,201.46,516.76,197.81,516.81z"/>
		<path class="st8" d="M229.83,516.81l0.73-12.15l0.74-17.39l0.43-21.5c1.81,0.05,3.31,0.08,4.5,0.08c1.56,0,3.05-0.02,4.47-0.08
			l-0.56,8.9c-0.12,2.19-0.29,5.72-0.49,10.58c0.66-1.2,1.21-2.09,1.65-2.69c0.44-0.6,0.93-1.15,1.48-1.66
			c0.54-0.51,1.1-0.94,1.68-1.29c0.57-0.35,1.25-0.66,2.02-0.93c0.77-0.27,1.63-0.49,2.57-0.64c0.94-0.15,1.91-0.22,2.9-0.22
			c1.7,0,3.34,0.24,4.91,0.71c1.57,0.47,2.93,1.27,4.06,2.39c1.14,1.12,1.92,2.44,2.34,3.95c0.42,1.51,0.63,3.08,0.63,4.73
			c0,1.07-0.05,2.74-0.16,5.01l-0.75,16.34c-0.06,1.7-0.09,3.65-0.09,5.87c-1.66-0.05-3.13-0.08-4.4-0.08
			c-1.37,0-2.94,0.03-4.71,0.08c0.28-2.94,0.56-6.95,0.84-12.04s0.41-8.7,0.41-10.84c0-1.97-0.26-3.51-0.78-4.62
			s-1.29-1.93-2.31-2.47s-2.13-0.8-3.33-0.8c-1.56,0-2.93,0.34-4.12,1.01c-1.15,0.65-2.11,1.62-2.89,2.92
			c-0.64,1.07-1.17,2.6-1.6,4.6c-0.45,2.09-0.78,5.33-0.98,9.72c-0.1,2.12-0.22,6.29-0.35,12.53c-1.62-0.05-3.02-0.08-4.19-0.08
			C233.38,516.74,231.82,516.76,229.83,516.81z"/>
		<path class="st8" d="M287.22,477.89c2.36,0,4.62,0.43,6.79,1.29c2.17,0.86,4,2.13,5.51,3.81s2.64,3.74,3.4,6.17
			c0.76,2.43,1.14,4.99,1.14,7.68c0,2.84-0.4,5.58-1.2,8.23c-0.8,2.64-1.96,4.93-3.48,6.86s-3.41,3.38-5.68,4.34
			c-2.27,0.96-4.69,1.44-7.25,1.44c-2.38,0-4.64-0.43-6.79-1.29s-3.98-2.15-5.5-3.87s-2.67-3.81-3.46-6.28
			c-0.79-2.47-1.19-5.05-1.19-7.74c0-2.74,0.36-5.36,1.08-7.85c0.72-2.49,1.84-4.71,3.37-6.66c1.53-1.94,3.48-3.45,5.87-4.52
			C282.22,478.43,284.68,477.89,287.22,477.89z M287.22,485.59c-1.78,0-3.37,0.53-4.77,1.59s-2.44,2.64-3.13,4.73
			c-0.69,2.09-1.03,4.37-1.03,6.84c0,2.17,0.28,4.1,0.84,5.8s1.48,3.07,2.76,4.11s2.8,1.57,4.56,1.57c1.8,0,3.38-0.54,4.74-1.63
			c1.36-1.08,2.38-2.68,3.07-4.79c0.69-2.11,1.03-4.43,1.03-6.97c0-2.07-0.27-3.95-0.8-5.65c-0.53-1.69-1.43-3.05-2.68-4.08
			C290.55,486.1,289.02,485.59,287.22,485.59z"/>
		<path class="st8" d="M341.11,516.81c-1.81-0.05-3.19-0.08-4.16-0.08c-1.21,0-2.59,0.03-4.13,0.08l0.06-6.21
			c-0.57,1.05-1.08,1.89-1.51,2.52s-1,1.26-1.69,1.87c-0.7,0.61-1.46,1.1-2.28,1.46c-0.82,0.36-1.76,0.66-2.82,0.9
			c-1.06,0.24-2.18,0.36-3.37,0.36c-2.3,0-4.3-0.41-6-1.21c-1.7-0.81-3.05-2.04-4.05-3.68c-1-1.64-1.49-4-1.49-7.07v-0.79l0.5-9.65
			l0.47-12.71c0.02-1.02,0.03-2.29,0.03-3.81c1.95,0.05,3.47,0.08,4.58,0.08c1.17,0,2.58-0.02,4.24-0.08l-1.02,17.05
			c-0.06,1.32-0.11,2.44-0.14,3.35s-0.05,1.56-0.05,1.96c0,1.79,0.22,3.28,0.66,4.47c0.44,1.18,1.21,2.09,2.31,2.71
			c1.1,0.62,2.27,0.93,3.52,0.93c1.19,0,2.32-0.27,3.38-0.82c0.96-0.5,1.79-1.2,2.48-2.09s1.27-2.11,1.74-3.63
			c0.35-1.1,0.61-2.62,0.8-4.56c0.14-1.37,0.28-3.73,0.4-7.07c0.17-4.04,0.29-8.14,0.35-12.3c2.03,0.05,3.59,0.08,4.66,0.08
			c1.21,0,2.58-0.02,4.1-0.08c-0.25,3.57-0.5,8.02-0.77,13.37s-0.45,9.76-0.55,13.24C341.26,508.87,341.17,512.68,341.11,516.81z"/>
		<path class="st8" d="M345.45,525.67c1.4-4.66,2.94-10.07,4.62-16.23c2.24,0.05,3.82,0.08,4.74,0.08c0.74,0,2.26-0.02,4.56-0.08
			c-0.82,1.7-1.69,3.43-2.6,5.22c-0.91,1.78-1.85,3.68-2.8,5.7c-0.95,2.02-1.81,3.78-2.57,5.27c-1.29-0.05-2.27-0.08-2.93-0.08
			C347.67,525.56,346.66,525.6,345.45,525.67z"/>
		<path class="st8" d="M415.77,507.47c-0.45,2.92-0.84,5.88-1.17,8.9c-2.34,0.5-4.49,0.85-6.44,1.05c-1.95,0.2-3.62,0.3-5.02,0.3
			c-3.08,0-6.02-0.52-8.82-1.57s-5.33-2.7-7.57-4.95c-2.25-2.26-3.88-4.99-4.88-8.21c-1.01-3.22-1.51-6.73-1.51-10.54
			c0-4.14,0.6-7.96,1.82-11.48c1.21-3.51,2.95-6.48,5.22-8.9c2.27-2.42,4.95-4.22,8.05-5.4c3.1-1.18,6.33-1.78,9.7-1.78
			c3.33,0,6.96,0.46,10.9,1.38c0.06,2.22,0.12,3.79,0.18,4.71l0.22,4c-2.32-0.75-4.25-1.26-5.79-1.53s-3.01-0.41-4.4-0.41
			c-2.2,0-4.31,0.41-6.33,1.21c-2.02,0.81-3.81,2.1-5.36,3.87c-1.55,1.77-2.74,3.91-3.57,6.41c-0.83,2.5-1.25,5.12-1.25,7.83
			c0,3.24,0.51,6.15,1.54,8.71c1.03,2.57,2.67,4.65,4.94,6.24c2.27,1.6,5.08,2.39,8.42,2.39
			C407.76,509.71,411.46,508.96,415.77,507.47z"/>
		<path class="st8" d="M421.75,516.81l0.73-12.15l0.74-17.39l0.43-21.5c1.81,0.05,3.31,0.08,4.5,0.08c1.56,0,3.05-0.02,4.47-0.08
			l-0.56,8.9c-0.12,2.19-0.29,5.72-0.49,10.58c0.66-1.2,1.21-2.09,1.65-2.69c0.44-0.6,0.93-1.15,1.48-1.66
			c0.54-0.51,1.1-0.94,1.68-1.29c0.57-0.35,1.25-0.66,2.02-0.93c0.77-0.27,1.63-0.49,2.57-0.64c0.94-0.15,1.91-0.22,2.9-0.22
			c1.7,0,3.34,0.24,4.91,0.71c1.57,0.47,2.93,1.27,4.06,2.39c1.14,1.12,1.92,2.44,2.34,3.95c0.42,1.51,0.63,3.08,0.63,4.73
			c0,1.07-0.05,2.74-0.16,5.01l-0.75,16.34c-0.06,1.7-0.09,3.65-0.09,5.87c-1.66-0.05-3.13-0.08-4.4-0.08
			c-1.37,0-2.94,0.03-4.71,0.08c0.28-2.94,0.56-6.95,0.84-12.04s0.41-8.7,0.41-10.84c0-1.97-0.26-3.51-0.78-4.62
			s-1.29-1.93-2.31-2.47s-2.13-0.8-3.33-0.8c-1.56,0-2.93,0.34-4.12,1.01c-1.15,0.65-2.11,1.62-2.89,2.92
			c-0.64,1.07-1.17,2.6-1.6,4.6c-0.45,2.09-0.78,5.33-0.98,9.72c-0.1,2.12-0.22,6.29-0.35,12.53c-1.62-0.05-3.02-0.08-4.19-0.08
			C425.29,516.74,423.74,516.76,421.75,516.81z"/>
		<path class="st8" d="M462.3,516.81c0.31-3.74,0.53-6.87,0.66-9.38c0.21-3.99,0.39-8.59,0.55-13.8c0.16-5.21,0.27-10.16,0.33-14.84
			c2,0.05,3.5,0.08,4.5,0.08c0.92,0,2.41-0.02,4.47-0.08c-0.28,4.34-0.5,8.48-0.67,12.41c-0.17,3.94-0.29,8.45-0.37,13.54
			c-0.08,5.08-0.12,9.11-0.12,12.08c-1.87-0.05-3.37-0.08-4.5-0.08C466.07,516.74,464.46,516.76,462.3,516.81z M463.99,472.28
			c0.08-2.57,0.12-4.54,0.12-5.91v-1.2c1.87,0.05,3.39,0.07,4.56,0.07c1.6,0,3.09-0.02,4.46-0.07c-0.06,0.62-0.1,1.33-0.12,2.13
			l-0.15,4.97c-1.56-0.05-3-0.07-4.31-0.07C467.23,472.21,465.71,472.23,463.99,472.28z"/>
		<path class="st8" d="M478.9,516.81c0.47-5.66,0.86-12.01,1.18-19.07c0.32-7.05,0.5-13.37,0.54-18.96c1.89,0.05,3.4,0.08,4.53,0.08
			c1.34,0,2.75-0.02,4.25-0.08l-0.34,6.36c0.64-1.1,1.2-1.97,1.68-2.62c0.48-0.65,1.1-1.28,1.85-1.91s1.55-1.12,2.4-1.5
			c0.85-0.37,1.81-0.67,2.86-0.9c1.06-0.22,2.16-0.34,3.31-0.34c1.83,0,3.58,0.28,5.25,0.84c1.67,0.56,3.02,1.45,4.05,2.67
			c1.03,1.22,1.7,2.56,2.03,4c0.33,1.45,0.49,2.98,0.49,4.6c0,0.67-0.03,1.75-0.09,3.22l-0.64,16.34c-0.08,2.27-0.13,4.69-0.15,7.25
			c-1.62-0.05-3.01-0.08-4.16-0.08c-1.56,0-3.14,0.03-4.72,0.08c0.16-2.17,0.37-5.95,0.62-11.35s0.37-8.97,0.37-10.71
			c0-1.97-0.26-3.55-0.77-4.75s-1.31-2.11-2.38-2.73c-1.08-0.62-2.24-0.93-3.49-0.93c-1.23,0-2.38,0.29-3.45,0.86
			s-1.99,1.41-2.77,2.5c-0.82,1.12-1.46,2.5-1.91,4.15c-0.47,1.75-0.82,4.62-1.05,8.64c-0.21,3.57-0.37,8.34-0.5,14.32
			c-1.58-0.05-3.01-0.08-4.29-0.08C482.32,516.74,480.75,516.76,478.9,516.81z"/>
		<path class="st8" d="M521.85,487.13c0.29-1.79,0.47-3.05,0.54-3.78c0.07-0.72,0.2-1.82,0.38-3.29c2.79-0.8,5.25-1.36,7.39-1.68
			c2.13-0.32,4.2-0.49,6.19-0.49c2.26,0,4.33,0.32,6.22,0.95c1.89,0.63,3.37,1.65,4.43,3.05c1.07,1.4,1.6,3.4,1.6,6.02
			c0,1.42-0.16,5.04-0.49,10.86s-0.52,11.83-0.58,18.04c-1.56-0.05-3-0.08-4.31-0.08c-1.25,0-2.72,0.03-4.41,0.08
			c0.27-3.02,0.49-6.51,0.65-10.47l0.4-9.31c-0.78,0.62-1.38,1.06-1.79,1.31c-0.41,0.25-0.87,0.48-1.39,0.69
			c-0.51,0.21-1.42,0.54-2.71,0.97c-1.29,0.44-2.33,0.82-3.11,1.14s-1.48,0.69-2.11,1.1c-0.63,0.41-1.16,0.87-1.59,1.38
			c-0.43,0.51-0.75,1.05-0.94,1.61s-0.29,1.17-0.29,1.81c0,1.05,0.25,1.95,0.75,2.71c0.5,0.76,1.13,1.29,1.89,1.59
			c0.76,0.3,1.65,0.45,2.68,0.45c0.66,0,1.35-0.06,2.08-0.19c0.73-0.12,1.71-0.44,2.94-0.93c-0.43,1.42-0.93,3.54-1.51,6.36
			c-1.46,0.3-2.62,0.49-3.48,0.56c-0.86,0.08-1.66,0.11-2.4,0.11c-2.59,0-4.71-0.42-6.37-1.27c-1.66-0.85-2.89-2.19-3.68-4.04
			c-0.79-1.84-1.19-3.7-1.19-5.57c0-1.07,0.15-2.13,0.46-3.18c0.31-1.05,0.76-2.01,1.36-2.88c0.6-0.87,1.37-1.71,2.31-2.52
			c0.94-0.81,2.31-1.59,4.1-2.36c1.79-0.76,4.15-1.53,7.09-2.3c0.78-0.2,1.59-0.44,2.43-0.73c0.84-0.29,1.52-0.57,2.02-0.84
			c0.5-0.27,0.94-0.63,1.31-1.07c0.37-0.44,0.64-0.89,0.82-1.37c0.17-0.47,0.26-0.96,0.26-1.46c0-0.97-0.26-1.79-0.79-2.47
			c-0.52-0.67-1.2-1.14-2.03-1.4s-1.75-0.39-2.76-0.39C530.5,483.87,526.37,484.96,521.85,487.13z"/>
	</g>
	<circle class="st8" cx="585.15" cy="495.39" r="5.67"/>
	<g>
		<path class="st8" d="M646.21,466.04c3.06,0,5.99,0.51,8.81,1.53c2.81,1.02,5.31,2.69,7.48,4.99c2.18,2.31,3.82,4.99,4.93,8.06
			c1.11,3.07,1.66,6.64,1.66,10.73c0,3.84-0.52,7.51-1.57,11.01c-1.05,3.5-2.67,6.52-4.87,9.05c-2.2,2.53-4.87,4.41-8.02,5.63
			c-3.15,1.22-6.46,1.83-9.93,1.83c-3.28,0-6.44-0.56-9.47-1.68c-3.03-1.12-5.63-2.88-7.82-5.27c-2.19-2.39-3.75-5.14-4.7-8.25
			s-1.42-6.46-1.42-10.08c0-3.96,0.59-7.75,1.77-11.37c1.18-3.61,2.91-6.61,5.2-8.97s4.97-4.16,8.04-5.38
			C639.38,466.65,642.68,466.04,646.21,466.04z M645.72,474c-3.1,0-5.8,0.87-8.1,2.6c-2.3,1.73-4.03,4.1-5.19,7.1
			c-1.16,3-1.74,6.25-1.74,9.74c0,3.24,0.56,6.23,1.68,8.95c1.12,2.73,2.84,4.81,5.16,6.24c2.32,1.43,4.82,2.15,7.51,2.15
			c2.03,0,3.97-0.42,5.82-1.27c1.85-0.85,3.44-2.14,4.79-3.87c1.34-1.73,2.36-3.82,3.03-6.26c0.68-2.44,1.02-4.98,1.02-7.63
			c0-2.47-0.3-4.84-0.91-7.1c-0.61-2.27-1.54-4.22-2.82-5.85c-1.27-1.63-2.81-2.84-4.6-3.63C649.58,474.39,647.69,474,645.72,474z"
			/>
		<path class="st8" d="M709.33,508.62c-0.45,2.92-0.84,5.88-1.17,8.9c-2.34,0.5-4.49,0.85-6.44,1.05c-1.95,0.2-3.62,0.3-5.02,0.3
			c-3.08,0-6.02-0.52-8.82-1.57c-2.8-1.05-5.33-2.7-7.58-4.95c-2.25-2.26-3.87-4.99-4.88-8.21c-1.01-3.22-1.51-6.73-1.51-10.54
			c0-4.14,0.61-7.96,1.82-11.48s2.95-6.48,5.22-8.9c2.27-2.42,4.95-4.22,8.05-5.4c3.1-1.18,6.33-1.78,9.7-1.78
			c3.33,0,6.96,0.46,10.9,1.38c0.06,2.22,0.12,3.79,0.18,4.71l0.21,4c-2.32-0.75-4.25-1.26-5.79-1.53c-1.54-0.27-3.01-0.41-4.4-0.41
			c-2.2,0-4.31,0.41-6.33,1.21c-2.02,0.81-3.81,2.1-5.36,3.87c-1.55,1.77-2.74,3.91-3.57,6.41c-0.83,2.5-1.25,5.12-1.25,7.83
			c0,3.24,0.51,6.15,1.54,8.71c1.03,2.57,2.67,4.65,4.94,6.24c2.27,1.6,5.08,2.39,8.42,2.39
			C701.32,510.87,705.02,510.12,709.33,508.62z"/>
		<path class="st8" d="M724.82,517.97l0.67-10.92l0.67-16.26l0.43-16h-2.15l-2,0.04l-1.91,0.04l-7.1,0.26
			c0.16-3.59,0.26-6.32,0.28-8.19c5.91,0.05,12.1,0.08,18.56,0.08l11.05-0.04l5.91-0.04c-0.21,3.55-0.31,6.28-0.31,8.19
			c-3.72-0.22-7.28-0.34-10.68-0.34h-2.37l-0.37,6.83l-0.88,26.28l-0.06,4.41c-0.02,1.82-0.03,3.71-0.03,5.67l-4.69-0.08
			C729.33,517.89,727.66,517.92,724.82,517.97z"/>
		<path class="st8" d="M767.31,517.97c0.06-0.95,0.09-1.71,0.09-2.28l0.18-5.46c2.57-2.79,4.91-5.49,7.04-8.09
			c2.12-2.6,4.29-5.39,6.51-8.37s3.89-5.37,5.02-7.19c0.92-1.47,1.54-2.57,1.85-3.31s0.51-1.36,0.62-1.87
			c0.1-0.51,0.15-1.03,0.15-1.55c0-1.37-0.34-2.48-1.02-3.34c-0.68-0.86-1.61-1.53-2.79-2.02s-2.55-0.73-4.11-0.73
			c-1.44,0-3,0.15-4.68,0.46c-1.68,0.31-3.85,0.86-6.5,1.67l0.58-3.78c0.12-0.9,0.31-2.41,0.55-4.52c4.74-1.05,9.3-1.57,13.67-1.57
			c1.99,0,3.91,0.23,5.76,0.69c1.85,0.46,3.49,1.25,4.94,2.36s2.5,2.39,3.17,3.85c0.67,1.46,1,2.99,1,4.58
			c0,0.95-0.08,1.89-0.23,2.82s-0.38,1.79-0.66,2.56c-0.55,1.55-1.26,3.1-2.11,4.67c-0.85,1.57-2.19,3.66-4,6.28
			c-1.82,2.62-3.8,5.3-5.94,8.04s-4.53,5.62-7.16,8.64h2.8l6.87-0.04c2.28,0,3.95-0.03,5.02-0.09s2.35-0.18,3.85-0.36
			c-0.04,0.77-0.11,1.78-0.2,3.01c-0.09,1.23-0.2,2.87-0.32,4.92c-4.66-0.05-9.5-0.08-14.53-0.08
			C776.58,517.89,771.44,517.92,767.31,517.97z"/>
		<path class="st8" d="M813.38,517.97c2.69-4.13,4.96-7.78,6.8-10.95c2.01-3.46,3.75-6.69,5.2-9.67c1.07-2.22,1.91-4.27,2.54-6.15
			c0.63-1.88,1.05-3.45,1.26-4.71c0.22-1.26,0.32-2.45,0.32-3.57c0-1.84-0.28-3.47-0.83-4.88c-0.55-1.41-1.36-2.47-2.42-3.19
			c-1.06-0.72-2.27-1.08-3.65-1.08c-1.42,0-2.73,0.39-3.94,1.17c-1.21,0.78-2.15,1.87-2.8,3.25c-0.66,1.38-0.99,2.9-0.99,4.57
			c0,1.59,0.24,2.98,0.72,4.16s1.29,2.1,2.43,2.76c1.14,0.66,2.48,0.99,4.02,0.99c0.62,0,1.21-0.06,1.77-0.19
			c0.56-0.12,1.25-0.31,2.05-0.56c-1.44,2.59-2.8,5.18-4.09,7.78c-1.17,0.25-2.22,0.37-3.14,0.37c-2.46,0-4.74-0.59-6.82-1.78
			c-2.08-1.18-3.61-2.87-4.57-5.07s-1.45-4.62-1.45-7.29c0-3.34,0.69-6.38,2.06-9.12s3.4-4.89,6.07-6.45
			c2.67-1.56,5.74-2.34,9.21-2.34c2.32,0,4.52,0.38,6.59,1.14c2.07,0.76,3.77,1.91,5.1,3.44c1.32,1.53,2.3,3.35,2.93,5.46
			c0.63,2.11,0.94,4.14,0.94,6.11c0,1.47-0.14,3.12-0.42,4.94c-0.28,1.82-0.73,3.74-1.36,5.76c-0.63,2.02-1.47,4.31-2.54,6.88
			c-1.07,2.57-2.36,5.25-3.86,8.04c-1.51,2.79-3.4,6.18-5.68,10.17c-1.83-0.02-3.62-0.04-5.39-0.04L813.38,517.97z"/>
		<path class="st8" d="M843.49,501.97c0.18-2.42,0.3-4.94,0.34-7.55c6.08,0.1,11.64,0.15,16.69,0.15c5.05,0,10.62-0.05,16.72-0.15
			c-0.21,2.72-0.33,5.23-0.37,7.55c-6.05-0.12-11.61-0.19-16.66-0.19S849.58,501.84,843.49,501.97z"/>
		<path class="st8" d="M883.33,517.97c0.39-4.46,0.69-9.47,0.89-15.03l0.71-18.32c0.25-6.63,0.37-12.53,0.37-17.69
			c2.38,0.05,4.4,0.08,6.06,0.08c1.23,0,3.03-0.02,5.38-0.08c2.32,4.91,5.53,11.32,9.61,19.22c4.09,7.9,7.39,14.45,9.89,19.63
			l1.13-34.7c0.02-0.82,0.03-2.21,0.03-4.15c1.93,0.05,3.39,0.08,4.38,0.08c0.39,0,1.83-0.02,4.32-0.08l-0.77,13.72l-0.95,23.48
			l-0.37,13.83c-2.14-0.05-3.95-0.08-5.45-0.08c-1.19,0-3.12,0.03-5.79,0.08c-1.03-2.22-1.81-3.86-2.34-4.94
			c-0.84-1.65-2.64-5.03-5.39-10.17c-1.81-3.39-4.07-7.73-6.78-13.01c-1.99-3.89-3.7-7.28-5.11-10.17
			c-0.16,4.04-0.42,11.53-0.76,22.47c-0.14,4.46-0.25,9.73-0.34,15.82c-1.93-0.05-3.33-0.08-4.19-0.08
			C887.18,517.89,885.67,517.92,883.33,517.97z"/>
		<path class="st8" d="M956.83,466.04c3.06,0,5.99,0.51,8.81,1.53c2.81,1.02,5.31,2.69,7.48,4.99c2.18,2.31,3.82,4.99,4.93,8.06
			c1.11,3.07,1.66,6.64,1.66,10.73c0,3.84-0.52,7.51-1.57,11.01c-1.05,3.5-2.67,6.52-4.87,9.05c-2.2,2.53-4.87,4.41-8.02,5.63
			c-3.15,1.22-6.46,1.83-9.93,1.83c-3.28,0-6.44-0.56-9.47-1.68c-3.03-1.12-5.63-2.88-7.82-5.27c-2.19-2.39-3.75-5.14-4.7-8.25
			s-1.42-6.46-1.42-10.08c0-3.96,0.59-7.75,1.77-11.37c1.18-3.61,2.91-6.61,5.2-8.97s4.97-4.16,8.04-5.38
			C950,466.65,953.3,466.04,956.83,466.04z M956.34,474c-3.1,0-5.8,0.87-8.1,2.6c-2.3,1.73-4.03,4.1-5.19,7.1
			c-1.16,3-1.74,6.25-1.74,9.74c0,3.24,0.56,6.23,1.68,8.95c1.12,2.73,2.84,4.81,5.16,6.24c2.32,1.43,4.82,2.15,7.51,2.15
			c2.03,0,3.97-0.42,5.82-1.27c1.85-0.85,3.44-2.14,4.79-3.87c1.34-1.73,2.36-3.82,3.03-6.26c0.68-2.44,1.02-4.98,1.02-7.63
			c0-2.47-0.3-4.84-0.91-7.1c-0.61-2.27-1.54-4.22-2.82-5.85c-1.27-1.63-2.81-2.84-4.6-3.63C960.19,474.39,958.31,474,956.34,474z"
			/>
		<path class="st8" d="M997.11,517.97l-1.17-4.71c-0.17-0.62-0.84-3-2.03-7.14l-5.98-20.64l-5.48-18.55
			c2.11,0.05,3.87,0.08,5.26,0.08c0.86,0,2.37-0.02,4.52-0.08l0.96,4.15c0.21,0.85,0.5,2,0.9,3.44l7.47,27.41
			c0.45,1.77,1.04,4.1,1.76,6.99l1.66-4.56c0.41-1.12,1.26-3.32,2.55-6.58l9.69-24.6c0.29-0.72,0.57-1.49,0.86-2.3
			c0.29-0.81,0.74-2.12,1.35-3.95c2.24,0.05,3.94,0.08,5.11,0.08c0.7,0,2.31-0.02,4.83-0.08l-2.65,5.98l-16.83,40.38l-1.78,4.67
			c-2.67-0.05-4.46-0.08-5.36-0.08C1001.95,517.89,1000.07,517.92,997.11,517.97z"/>
		<path class="st8" d="M1045.5,517.97c0.06-0.95,0.09-1.71,0.09-2.28l0.18-5.46c2.57-2.79,4.91-5.49,7.04-8.09
			c2.12-2.6,4.29-5.39,6.51-8.37s3.89-5.37,5.02-7.19c0.92-1.47,1.54-2.57,1.85-3.31s0.51-1.36,0.62-1.87
			c0.1-0.51,0.15-1.03,0.15-1.55c0-1.37-0.34-2.48-1.02-3.34c-0.68-0.86-1.61-1.53-2.79-2.02s-2.55-0.73-4.11-0.73
			c-1.44,0-3,0.15-4.68,0.46c-1.68,0.31-3.85,0.86-6.5,1.67l0.58-3.78c0.12-0.9,0.31-2.41,0.55-4.52c4.74-1.05,9.3-1.57,13.67-1.57
			c1.99,0,3.91,0.23,5.76,0.69c1.85,0.46,3.49,1.25,4.94,2.36s2.5,2.39,3.17,3.85c0.67,1.46,1,2.99,1,4.58
			c0,0.95-0.08,1.89-0.23,2.82s-0.38,1.79-0.66,2.56c-0.55,1.55-1.26,3.1-2.11,4.67c-0.85,1.57-2.19,3.66-4,6.28
			c-1.82,2.62-3.8,5.3-5.94,8.04s-4.53,5.62-7.16,8.64h2.8l6.87-0.04c2.28,0,3.95-0.03,5.02-0.09s2.35-0.18,3.85-0.36
			c-0.04,0.77-0.11,1.78-0.2,3.01c-0.09,1.23-0.2,2.87-0.32,4.92c-4.66-0.05-9.5-0.08-14.53-0.08
			C1054.77,517.89,1049.63,517.92,1045.5,517.97z"/>
	</g>
	<g>
	</g>
	<g>
	</g>
	<g>
	</g>
	<g>
	</g>
	<g>
	</g>
	<g>
	</g>
	<g>
	</g>
	<g>
	</g>
	<g>
	</g>
	<g>
	</g>
	<g>
	</g>
	<g>
	</g>
	<g>
	</g>
	<g>
	</g>
	<g>
	</g>
	<g>
	</g>
</g>
</svg>
