<?xml version="1.0" encoding="utf-8"?>
<!-- Generator: Adobe Illustrator 28.0.0, SVG Export Plug-In . SVG Version: 6.00 Build 0)  -->
<svg version="1.1" xmlns="http://www.w3.org/2000/svg" xmlns:xlink="http://www.w3.org/1999/xlink" x="0px" y="0px"
	 viewBox="0 0 1133.86 1133.86" style="enable-background:new 0 0 1133.86 1133.86;" xml:space="preserve">
<style type="text/css">
	.st0{display:none;}
	.st1{display:inline;fill:#C5D7EC;}
	.st2{fill:none;}
	.st3{fill:#0A2147;}
	.st4{fill:#242447;}
	.st5{fill:#192E42;}
</style>
<g id="图层_3" class="st0">
	<rect class="st1" width="1134" height="1133.93"/>
</g>
<g id="图层_1">
	<g>
		<rect x="56.26" y="289.4" class="st2" width="1057.74" height="284.9"/>
		<path class="st3" d="M67,526.13c-0.69-14.3-1.6-25.96-2.72-34.99c16.9,8.37,32.26,12.56,46.06,12.56c5.52,0,10.67-0.92,15.46-2.75
			c4.79-1.83,8.32-4.42,10.61-7.76c2.28-3.34,3.43-7.08,3.43-11.22c0-3.2-0.55-6.07-1.65-8.61c-1.65-3.48-4.4-7.1-8.24-10.86
			c-4.93-5.17-13.73-13.69-26.39-25.54c-6.03-5.74-10.2-9.83-12.49-12.27c-5.17-5.36-9.14-10.18-11.9-14.46
			c-2.76-4.28-4.74-8.54-5.95-12.77c-1.21-4.23-1.81-8.75-1.81-13.54c0-8.84,2.26-17.14,6.79-24.9c4.53-7.76,11.3-13.83,20.31-18.2
			c9.01-4.37,20.38-6.56,34.09-6.56c12.33,0,26.22,1.65,41.66,4.94c0.43,9.78,1.29,20.97,2.59,33.58
			c-13.43-5.64-25.82-8.46-37.19-8.46c-8.44,0-15.35,2.09-20.72,6.28c-5.38,4.19-8.07,9.05-8.07,14.6c0,1.51,0.19,3.08,0.56,4.73
			c0.38,1.65,0.94,3.24,1.69,4.8c0.75,1.55,2.09,3.58,4.01,6.07c1.92,2.49,4.74,5.41,8.44,8.75c3.7,3.34,6.87,6.04,9.49,8.11
			l15.96,15.8c4.04,3.67,7.66,7.24,10.85,10.72c3.19,3.48,5.92,6.82,8.2,10.02c2.28,3.2,4.07,6.26,5.36,9.17
			c1.29,2.92,2.26,5.9,2.91,8.96c0.65,3.06,0.97,6.28,0.97,9.66c0,7.9-1.68,15.36-5.05,22.36c-3.36,7.01-8.2,12.77-14.49,17.28
			c-6.3,4.51-13.2,7.64-20.7,9.38s-15.44,2.61-23.81,2.61c-5.52,0-11.95-0.52-19.28-1.55C88.65,531.02,78.98,529.05,67,526.13z"/>
		<path class="st3" d="M207.63,530.22l2.33-33.44l3.24-74.07l1.55-53.75c0.08-4.89,0.13-9.83,0.13-14.81
			c0-3.67-0.04-9.17-0.13-16.51c11.04,0.19,20.01,0.28,26.91,0.28c5.52,0,13.19-0.14,23.03-0.42s17.64-0.42,23.42-0.42
			c11.9,0,20.66,0.94,26.26,2.82c5.95,2.07,11.17,5.31,15.65,9.73c4.48,4.42,7.89,9.73,10.22,15.94c2.59,6.96,3.88,14.44,3.88,22.43
			c0,12.13-2.78,23.16-8.34,33.08c-5.56,9.92-13.26,17.33-23.09,22.22c-9.83,4.89-20.74,7.34-32.73,7.34
			c-5.87,0-12.12-0.66-18.76-1.98c-1.9-9.78-4.06-18.95-6.47-27.51c5.33,1.22,10.62,1.83,15.87,1.83c7.14,0,13.34-1.18,18.58-3.53
			c5.25-2.35,9.42-6.18,12.52-11.5c3.1-5.31,4.65-11.31,4.65-17.99c0-3.95-0.65-7.57-1.94-10.86c-1.29-3.29-3.16-5.93-5.62-7.9
			c-2.45-1.98-5.16-3.32-8.13-4.02c-2.97-0.71-7.21-1.06-12.71-1.06c-4.82,0-9.68,0.09-14.58,0.28c-4.9,0.19-9.25,0.28-13.04,0.28
			c-1.03,18.44-1.8,36.07-2.31,52.9l-1.54,53.89c-0.52,19.09-0.77,33.11-0.77,42.04c0,3.39,0.04,8.28,0.13,14.67l-18.77-0.28
			C224.63,529.94,218.16,530.03,207.63,530.22z"/>
		<path class="st3" d="M358.66,530.22l2.95-31.88l7.49-112.02l2.61-48.67c10.78,0.19,18.66,0.28,23.63,0.28
			c3.99,0,11.27-0.09,21.82-0.28c1.21,7.62,2.12,13.03,2.72,16.22c0.6,3.2,1.78,8.32,3.52,15.38c1.74,7.05,3.97,15.61,6.69,25.68
			c4.01,15.24,7.6,30.29,10.78,45.15l8.62,40.35l15.14-51.78l22.03-67.3c0.75-2.26,1.52-4.87,2.32-7.83
			c0.79-2.96,2.13-8.25,4.01-15.87c8.99,0.19,16.99,0.28,24.01,0.28c4.68,0,12.16-0.09,22.43-0.28c-1.06,27.09-1.85,57.02-2.37,89.8
			c-0.53,32.78-0.79,57.26-0.79,73.43c0,7.81,0.07,17.59,0.23,29.34c-7.47-0.19-12.57-0.28-15.29-0.28c-3.93,0-9.14,0.09-15.63,0.28
			c0.45-9.59,0.75-17.49,0.9-23.7l1.91-83.94c0.23-11.85,0.34-23.51,0.34-34.99l-0.11-11.43l-41.61,137.27l-4.85,16.79
			c-7.35-0.19-12.39-0.28-15.12-0.28c-3.41,0-8.76,0.09-16.03,0.28l-19.48-86.91c-0.68-3.1-2.27-9.59-4.76-19.47l-7.02-28.78
			c-0.68-2.73-1.19-4.96-1.53-6.7c-0.34-1.74-1.08-5.62-2.21-11.64l-1.47,18.06c-0.38,5.74-0.94,15.33-1.7,28.78l-4.42,87.47
			c-0.15,4.33-0.27,10.72-0.34,19.19l-14.6-0.28C370.99,529.94,366.05,530.03,358.66,530.22z"/>
	</g>
	<g>
	</g>
	<g>
		<path class="st3" d="M578.65,533.41c0.18-2.5,0.27-4.5,0.27-6.01l0.54-14.39c7.53-7.35,14.42-14.46,20.66-21.32
			c6.24-6.86,12.61-14.21,19.12-22.06c6.51-7.84,11.42-14.16,14.73-18.96c2.71-3.87,4.52-6.78,5.42-8.72
			c0.9-1.94,1.51-3.58,1.81-4.92c0.3-1.35,0.45-2.71,0.45-4.09c0-3.61-0.99-6.55-2.98-8.81c-1.99-2.26-4.72-4.04-8.18-5.32
			c-3.47-1.28-7.49-1.92-12.07-1.92c-4.22,0-8.8,0.4-13.74,1.21s-11.3,2.28-19.07,4.41l1.72-9.96c0.36-2.37,0.9-6.34,1.63-11.93
			c13.92-2.76,27.3-4.14,40.14-4.14c5.84,0,11.48,0.61,16.9,1.82c5.42,1.22,10.26,3.29,14.51,6.21c4.25,2.92,7.35,6.31,9.31,10.15
			c1.96,3.84,2.94,7.87,2.94,12.08c0,2.5-0.23,4.98-0.68,7.44c-0.45,2.46-1.1,4.72-1.94,6.75c-1.63,4.08-3.69,8.18-6.19,12.32
			c-2.5,4.14-6.42,9.66-11.75,16.56c-5.33,6.9-11.15,13.96-17.45,21.19c-6.3,7.23-13.31,14.82-21.02,22.77h8.23l20.16-0.1
			c6.69,0,11.6-0.08,14.74-0.25c3.13-0.16,6.9-0.48,11.3-0.94c-0.12,2.04-0.32,4.68-0.59,7.94c-0.27,3.25-0.59,7.57-0.95,12.96
			c-13.68-0.13-27.9-0.2-42.67-0.2C605.86,533.21,590.76,533.28,578.65,533.41z"/>
		<path class="st3" d="M742.81,396.49c9.52,0,17.67,2.23,24.45,6.7c6.78,4.47,12.04,11.6,15.77,21.39c3.74,9.79,5.6,21.23,5.6,34.3
			c0,10.32-1.15,20.6-3.43,30.85c-2.29,10.25-5.46,18.66-9.49,25.24c-4.04,6.57-9.57,11.68-16.59,15.33
			c-7.02,3.65-14.54,5.47-22.55,5.47c-7.71,0-14.6-1.63-20.66-4.88s-10.98-7.82-14.78-13.7c-3.8-5.88-6.45-12.48-7.96-19.81
			c-1.51-7.33-2.26-14.87-2.26-22.62c0-10.71,1.14-21.26,3.43-31.64c2.29-10.38,5.59-19.04,9.9-25.97
			c4.31-6.93,9.9-12.11,16.77-15.53C727.89,398.2,735.15,396.49,742.81,396.49z M742.13,416.9c-2.29,0-4.54,0.49-6.75,1.48
			c-2.21,0.99-4.35,2.62-6.43,4.88c-2.08,2.27-3.8,4.92-5.16,7.94c-1.36,3.03-2.6,6.69-3.71,11c-1.12,4.31-1.99,9.44-2.63,15.39
			s-0.95,12.02-0.95,18.2c0,8.95,0.83,16.23,2.49,21.86c1.66,5.62,4.13,9.98,7.43,13.07c3.29,3.09,7.08,4.64,11.37,4.64
			c2.35,0,4.65-0.51,6.88-1.53s4.51-2.94,6.84-5.77c2.33-2.83,4.41-6.96,6.25-12.38c1.84-5.43,3.19-11.38,4.03-17.86
			c0.84-6.48,1.27-13.04,1.27-19.69c0-9.14-0.8-16.68-2.4-22.6c-1.6-5.92-4-10.51-7.2-13.77
			C750.25,418.53,746.48,416.9,742.13,416.9z"/>
		<path class="st3" d="M804.46,533.41c0.18-2.5,0.27-4.5,0.27-6.01l0.54-14.39c7.53-7.35,14.42-14.46,20.66-21.32
			c6.24-6.86,12.61-14.21,19.12-22.06c6.51-7.84,11.42-14.16,14.73-18.96c2.71-3.87,4.52-6.78,5.42-8.72
			c0.9-1.94,1.51-3.58,1.81-4.92c0.3-1.35,0.45-2.71,0.45-4.09c0-3.61-0.99-6.55-2.98-8.81c-1.99-2.26-4.72-4.04-8.18-5.32
			c-3.47-1.28-7.49-1.92-12.07-1.92c-4.22,0-8.8,0.4-13.74,1.21s-11.3,2.28-19.07,4.41l1.72-9.96c0.36-2.37,0.9-6.34,1.63-11.93
			c13.92-2.76,27.3-4.14,40.14-4.14c5.84,0,11.48,0.61,16.9,1.82c5.42,1.22,10.26,3.29,14.51,6.21c4.25,2.92,7.35,6.31,9.31,10.15
			c1.96,3.84,2.94,7.87,2.94,12.08c0,2.5-0.23,4.98-0.68,7.44c-0.45,2.46-1.1,4.72-1.94,6.75c-1.63,4.08-3.69,8.18-6.19,12.32
			c-2.5,4.14-6.42,9.66-11.75,16.56c-5.33,6.9-11.15,13.96-17.45,21.19c-6.3,7.23-13.31,14.82-21.02,22.77h8.23l20.16-0.1
			c6.69,0,11.6-0.08,14.74-0.25c3.13-0.16,6.9-0.48,11.3-0.94c-0.12,2.04-0.32,4.68-0.59,7.94c-0.27,3.25-0.59,7.57-0.95,12.96
			c-13.68-0.13-27.9-0.2-42.67-0.2C831.67,533.21,816.57,533.28,804.46,533.41z"/>
		<path class="st3" d="M923.06,531.54l-0.45-7.79c-0.12-2.1-0.27-4.21-0.45-6.31c-0.18-2.1-0.48-4.9-0.9-8.38
			c11.27,3.55,20.91,5.32,28.93,5.32c5.66,0,10.83-1.05,15.5-3.15c4.67-2.1,8.32-5.18,10.94-9.22s3.93-8.39,3.93-13.06
			c0-4.07-1.01-7.62-3.03-10.65c-2.02-3.02-5.12-5.34-9.31-6.95c-4.19-1.61-9.69-2.42-16.5-2.42c-3.92,0-7.77,0.18-11.57,0.54
			c-3.8,0.36-8.89,1.07-15.28,2.12c2.52-29.77,4.35-54.02,5.49-72.75c16.16,0.13,29.42,0.2,39.79,0.2c13.74,0,26.77-0.06,39.07-0.2
			c-0.42,5.26-0.66,9.2-0.72,11.83l-0.27,9.46c-5.36-0.46-13.71-0.72-25.04-0.79l-15.91-0.2c-2.65,0-6.33,0.03-11.03,0.1
			l-2.86,34.11c5.12-0.66,9.46-0.99,13.01-0.99c8.85,0,16.85,1.4,23.99,4.19c7.14,2.79,12.39,7.11,15.77,12.96
			c3.37,5.85,5.06,12.29,5.06,19.32c0,6.97-1.55,13.62-4.66,19.96c-3.1,6.34-7.4,11.5-12.88,15.48c-5.48,3.98-11.81,6.88-18.98,8.72
			c-7.17,1.84-14.52,2.76-22.06,2.76c-2.65,0-5.92-0.2-9.81-0.59c-3.89-0.39-7.13-0.82-9.72-1.28
			C930.5,533.44,927.15,532.66,923.06,531.54z"/>
	</g>
</g>
<g id="图层_4">
	<g>
		<rect x="87.26" y="560.46" class="st2" width="468.74" height="284.9"/>
		<path class="st4" d="M97.55,797.19c-0.66-14.3-1.53-25.96-2.6-34.99c16.2,8.37,30.91,12.56,44.14,12.56
			c5.29,0,10.23-0.92,14.82-2.75c4.59-1.83,7.98-4.42,10.17-7.76c2.19-3.34,3.29-7.08,3.29-11.22c0-3.2-0.53-6.07-1.58-8.61
			c-1.58-3.48-4.21-7.1-7.9-10.86c-4.73-5.17-13.15-13.69-25.29-25.54c-5.78-5.74-9.77-9.83-11.97-12.27
			c-4.96-5.36-8.76-10.18-11.41-14.46c-2.65-4.28-4.55-8.54-5.7-12.77c-1.16-4.23-1.74-8.75-1.74-13.54c0-8.84,2.17-17.14,6.51-24.9
			c4.34-7.76,10.83-13.83,19.47-18.2c8.64-4.37,19.53-6.56,32.67-6.56c11.82,0,25.13,1.65,39.92,4.94
			c0.41,9.78,1.24,20.97,2.48,33.58c-12.87-5.64-24.75-8.46-35.64-8.46c-8.09,0-14.71,2.09-19.86,6.28
			c-5.16,4.19-7.73,9.05-7.73,14.6c0,1.51,0.18,3.08,0.54,4.73c0.36,1.65,0.9,3.24,1.62,4.8c0.72,1.55,2,3.58,3.84,6.07
			c1.84,2.49,4.54,5.41,8.09,8.75c3.55,3.34,6.58,6.04,9.1,8.11l15.3,15.8c3.88,3.67,7.34,7.24,10.4,10.72
			c3.05,3.48,5.67,6.82,7.86,10.02c2.19,3.2,3.9,6.26,5.14,9.17c1.24,2.92,2.17,5.9,2.79,8.96c0.62,3.06,0.93,6.28,0.93,9.66
			c0,7.9-1.61,15.36-4.84,22.36c-3.22,7.01-7.85,12.77-13.89,17.28c-6.03,4.51-12.65,7.64-19.84,9.38
			c-7.19,1.74-14.8,2.61-22.81,2.61c-5.29,0-11.45-0.52-18.47-1.55C118.3,802.08,109.04,800.11,97.55,797.19z"/>
		<path class="st4" d="M228.97,801.28l3.23-31.88l8.21-112.02l2.86-48.67c11.81,0.19,20.43,0.28,25.88,0.28
			c4.37,0,12.34-0.09,23.9-0.28c1.33,7.62,2.32,13.03,2.98,16.22c0.66,3.2,1.95,8.32,3.85,15.38c1.9,7.05,4.35,15.61,7.33,25.68
			c4.39,15.24,8.33,30.29,11.81,45.15l9.44,40.35l16.58-51.78l24.13-67.3c0.83-2.26,1.67-4.87,2.54-7.83
			c0.87-2.96,2.33-8.25,4.39-15.87c9.84,0.19,18.61,0.28,26.3,0.28c5.13,0,13.31-0.09,24.56-0.28c-1.16,27.09-2.02,57.02-2.6,89.8
			c-0.58,32.78-0.86,57.26-0.86,73.43c0,7.81,0.08,17.59,0.25,29.34C415.58,801.1,410,801,407.02,801c-4.3,0-10.01,0.09-17.12,0.28
			c0.49-9.59,0.82-17.49,0.98-23.7l2.09-83.94c0.25-11.85,0.37-23.51,0.37-34.99l-0.12-11.43L347.65,784.5l-5.31,16.79
			c-8.05-0.19-13.57-0.28-16.56-0.28c-3.74,0-9.59,0.09-17.56,0.28l-21.34-86.91c-0.74-3.1-2.48-9.59-5.21-19.47l-7.69-28.78
			c-0.74-2.73-1.3-4.96-1.67-6.7c-0.37-1.74-1.18-5.62-2.42-11.64l-1.61,18.06c-0.41,5.74-1.03,15.33-1.86,28.78l-4.84,87.47
			c-0.17,4.33-0.29,10.72-0.37,19.19L245.21,801C242.48,801,237.07,801.1,228.97,801.28z"/>
		<path class="st4" d="M457.35,801.28c1.97-32.35,3.58-65.53,4.81-99.53c1.23-34,1.85-59.98,1.85-77.95l-0.12-15.1l20.72,0.28
			c1.16,0,7.48-0.09,18.98-0.28c-3.37,49.47-5.51,113.66-6.42,192.57L478.94,801C475.88,801,468.68,801.1,457.35,801.28z"/>
	</g>
	<g>
		<path class="st4" d="M543.21,782.2l0.72-14.05c0.39-7.67,0.67-14.79,0.84-21.35s0.25-11.14,0.25-13.72l-0.03-4.31
			c2.42,0.05,4.13,0.08,5.13,0.08c0.76,0,2.3-0.03,4.64-0.08l-0.81,17.65l-0.09,4.07h20.96l0.38-10.59
			c0.08-3.63,0.13-6.03,0.13-7.18v-3.96l5.15,0.08c0.45,0,1.99-0.03,4.62-0.08l-1.02,21.33l-0.43,15.81l-0.12,9.28
			c-0.04,3.81-0.06,6.15-0.06,7.01l-4.81-0.08c-0.6,0-2.3,0.03-5.12,0.08c0.54-7.38,0.88-15.15,1.02-23.29h-21.02l-0.43,14.4
			l-0.12,8.89l-5.05-0.08C547.36,782.12,545.79,782.15,543.21,782.2z"/>
		<path class="st4" d="M593.92,751.12c0.29-1.88,0.47-3.2,0.54-3.95c0.07-0.76,0.2-1.9,0.39-3.44c2.79-0.83,5.25-1.42,7.39-1.76
			c2.13-0.34,4.2-0.51,6.19-0.51c2.26,0,4.33,0.33,6.22,1c1.89,0.67,3.37,1.73,4.43,3.19s1.6,3.56,1.6,6.3
			c0,1.49-0.16,5.28-0.49,11.37c-0.33,6.09-0.52,12.39-0.58,18.89c-1.56-0.05-3-0.08-4.31-0.08c-1.25,0-2.72,0.03-4.41,0.08
			c0.27-3.16,0.49-6.81,0.65-10.96l0.41-9.75c-0.78,0.65-1.38,1.11-1.79,1.37c-0.41,0.26-0.87,0.5-1.39,0.72
			c-0.51,0.22-1.42,0.56-2.71,1.02c-1.29,0.46-2.33,0.85-3.11,1.19c-0.78,0.34-1.48,0.72-2.11,1.15c-0.63,0.43-1.16,0.91-1.59,1.45
			c-0.43,0.54-0.74,1.1-0.94,1.68c-0.2,0.59-0.29,1.22-0.29,1.9c0,1.1,0.25,2.04,0.75,2.84c0.5,0.8,1.13,1.35,1.89,1.66
			c0.76,0.31,1.65,0.47,2.68,0.47c0.66,0,1.35-0.06,2.08-0.2c0.73-0.13,1.71-0.46,2.94-0.98c-0.43,1.49-0.93,3.71-1.51,6.65
			c-1.46,0.31-2.62,0.51-3.48,0.59c-0.86,0.08-1.66,0.12-2.4,0.12c-2.59,0-4.71-0.44-6.37-1.33c-1.66-0.89-2.89-2.3-3.68-4.23
			c-0.79-1.93-1.19-3.88-1.19-5.83c0-1.12,0.15-2.23,0.46-3.33c0.31-1.1,0.76-2.1,1.36-3.01s1.37-1.79,2.31-2.64
			c0.95-0.85,2.31-1.67,4.1-2.47c1.79-0.8,4.15-1.6,7.09-2.41c0.78-0.21,1.59-0.46,2.43-0.76c0.84-0.3,1.52-0.59,2.02-0.88
			s0.94-0.66,1.31-1.12c0.37-0.46,0.64-0.93,0.82-1.43c0.17-0.5,0.26-1,0.26-1.53c0-1.02-0.26-1.88-0.79-2.58
			c-0.52-0.7-1.2-1.19-2.03-1.47s-1.75-0.41-2.76-0.41C602.56,747.71,598.44,748.85,593.92,751.12z"/>
		<path class="st4" d="M627.08,782.2c0.47-5.92,0.86-12.58,1.18-19.96c0.32-7.38,0.5-14,0.54-19.84c1.89,0.05,3.4,0.08,4.53,0.08
			c1.33,0,2.75-0.03,4.25-0.08l-0.34,6.65c0.64-1.15,1.2-2.06,1.68-2.74s1.1-1.34,1.85-2c0.75-0.65,1.55-1.17,2.4-1.57
			c0.85-0.39,1.81-0.7,2.86-0.94c1.06-0.23,2.16-0.35,3.31-0.35c1.83,0,3.58,0.29,5.25,0.88c1.67,0.59,3.02,1.52,4.05,2.8
			c1.03,1.28,1.7,2.67,2.03,4.19c0.33,1.51,0.49,3.12,0.49,4.81c0,0.7-0.03,1.83-0.09,3.37l-0.64,17.1
			c-0.08,2.37-0.13,4.91-0.15,7.59c-1.62-0.05-3.01-0.08-4.16-0.08c-1.56,0-3.13,0.03-4.72,0.08c0.17-2.27,0.37-6.23,0.62-11.88
			c0.25-5.65,0.37-9.39,0.37-11.21c0-2.06-0.26-3.72-0.77-4.97c-0.51-1.25-1.31-2.2-2.38-2.86c-1.08-0.65-2.24-0.98-3.49-0.98
			c-1.23,0-2.38,0.3-3.45,0.9c-1.07,0.6-1.99,1.47-2.77,2.62c-0.82,1.17-1.46,2.62-1.91,4.34c-0.47,1.83-0.82,4.84-1.05,9.04
			c-0.21,3.73-0.37,8.73-0.5,14.99c-1.58-0.05-3.01-0.08-4.29-0.08C630.5,782.12,628.93,782.15,627.08,782.2z"/>
		<path class="st4" d="M669.88,790.46c4.62,1.93,8.62,2.9,12.01,2.9c1.29,0,2.51-0.2,3.66-0.61s2.11-0.99,2.89-1.76
			c0.78-0.77,1.39-1.81,1.82-3.12c0.43-1.31,0.72-2.84,0.86-4.57c0.14-1.73,0.26-4.35,0.34-7.87c-0.8,1.38-1.52,2.46-2.16,3.23
			c-0.64,0.77-1.4,1.46-2.29,2.07c-0.89,0.61-1.93,1.11-3.12,1.49s-2.44,0.57-3.76,0.57c-1.81,0-3.52-0.36-5.14-1.08
			c-1.62-0.72-3.06-1.85-4.33-3.39c-1.26-1.54-2.22-3.48-2.88-5.81c-0.66-2.33-0.99-4.77-0.99-7.3c0-3.63,0.54-7.06,1.62-10.29
			c1.08-3.24,2.66-5.9,4.74-7.98c2.08-2.09,4.31-3.52,6.68-4.31c2.37-0.78,5-1.17,7.9-1.17c1.6,0,3.42,0.12,5.45,0.37
			c2.03,0.25,4.72,0.75,8.07,1.51l-0.71,12.4l-0.65,15.53l-0.25,14.04c-0.06,1.59-0.22,3.12-0.46,4.6c-0.25,1.47-0.64,2.8-1.17,3.99
			c-0.53,1.19-1.21,2.24-2.03,3.15c-0.82,0.91-1.75,1.65-2.79,2.21c-1.04,0.56-2.32,1.02-3.85,1.39c-1.53,0.36-3.17,0.55-4.91,0.55
			c-1.87,0-3.99-0.16-6.37-0.47c-2.38-0.31-4.98-0.9-7.79-1.76L669.88,790.46z M692.36,750.22c-1.79-0.47-3.44-0.7-4.96-0.7
			c-2.67,0-4.88,0.62-6.62,1.86c-1.75,1.24-3.09,3.05-4.03,5.43c-0.94,2.38-1.42,4.9-1.42,7.57c0,1.96,0.29,3.78,0.86,5.47
			c0.57,1.69,1.47,2.96,2.69,3.82s2.57,1.29,4.05,1.29c1.05,0,2.03-0.21,2.94-0.63s1.74-1.06,2.48-1.92
			c0.74-0.86,1.39-1.93,1.96-3.22c0.56-1.28,0.96-2.72,1.2-4.33c0.24-1.61,0.42-3.62,0.54-6.04S692.27,753.54,692.36,750.22z"/>
		<path class="st4" d="M705.81,782.2c0.08-2.56,0.14-5.44,0.19-8.65c0.8-1.02,1.32-1.72,1.57-2.11l15.04-21.61H721
			c-2.73,0-5.12,0.04-7.18,0.12c-2.06,0.08-4.08,0.2-6.04,0.35c0.14-2.5,0.22-5.14,0.22-7.91c3.57,0.05,6.92,0.08,10.04,0.08
			c5.64,0,10.44-0.03,14.38-0.08c-0.08,1.1-0.2,4.14-0.34,9.12l-15.35,21.72l-1.04,1.37c2.05,0.1,3.77,0.16,5.17,0.16
			c3.01,0,5.09-0.02,6.23-0.06s2.54-0.11,4.2-0.22c-0.16,1.96-0.31,4.53-0.43,7.71c-3.61-0.05-7.7-0.08-12.25-0.08
			C713.72,782.12,709.46,782.15,705.81,782.2z"/>
		<path class="st4" d="M737.83,782.2l0.73-12.72l0.74-18.2l0.43-22.51c1.81,0.05,3.31,0.08,4.5,0.08c1.56,0,3.05-0.03,4.47-0.08
			l-0.56,9.32c-0.12,2.3-0.29,5.99-0.49,11.08c0.66-1.25,1.21-2.19,1.65-2.82c0.44-0.63,0.93-1.21,1.48-1.74
			c0.54-0.53,1.1-0.98,1.68-1.35c0.58-0.37,1.25-0.69,2.02-0.98c0.77-0.29,1.63-0.51,2.57-0.67s1.91-0.23,2.89-0.23
			c1.7,0,3.34,0.25,4.91,0.74c1.57,0.5,2.93,1.33,4.06,2.51c1.14,1.17,1.92,2.55,2.34,4.13c0.42,1.58,0.63,3.23,0.63,4.95
			c0,1.12-0.05,2.87-0.16,5.25l-0.75,17.1c-0.06,1.77-0.09,3.82-0.09,6.15c-1.66-0.05-3.13-0.08-4.4-0.08
			c-1.37,0-2.94,0.03-4.71,0.08c0.28-3.08,0.56-7.28,0.84-12.6s0.41-9.11,0.41-11.35c0-2.06-0.26-3.67-0.78-4.83
			c-0.52-1.16-1.29-2.02-2.31-2.58c-1.01-0.56-2.13-0.84-3.33-0.84c-1.56,0-2.93,0.35-4.12,1.06c-1.15,0.68-2.11,1.7-2.89,3.05
			c-0.63,1.12-1.17,2.73-1.6,4.81c-0.45,2.19-0.78,5.58-0.98,10.18c-0.1,2.22-0.22,6.59-0.34,13.11c-1.62-0.05-3.02-0.08-4.19-0.08
			C741.38,782.12,739.82,782.15,737.83,782.2z"/>
		<path class="st4" d="M795.22,741.45c2.36,0,4.62,0.45,6.79,1.35c2.17,0.9,4,2.23,5.51,3.99c1.51,1.76,2.64,3.91,3.4,6.46
			c0.76,2.54,1.14,5.23,1.14,8.04c0,2.97-0.4,5.85-1.2,8.61c-0.8,2.77-1.96,5.16-3.48,7.18c-1.52,2.02-3.41,3.54-5.68,4.54
			c-2.27,1-4.69,1.51-7.25,1.51c-2.38,0-4.64-0.45-6.79-1.35c-2.15-0.9-3.98-2.25-5.5-4.05c-1.52-1.8-2.67-3.99-3.46-6.58
			c-0.79-2.58-1.19-5.28-1.19-8.1c0-2.87,0.36-5.61,1.08-8.22c0.72-2.61,1.84-4.93,3.37-6.97s3.48-3.61,5.87-4.74
			C790.22,742.01,792.68,741.45,795.22,741.45z M795.22,749.52c-1.78,0-3.37,0.55-4.77,1.66c-1.4,1.11-2.44,2.76-3.13,4.95
			c-0.68,2.19-1.03,4.58-1.03,7.16c0,2.27,0.28,4.29,0.84,6.07c0.56,1.77,1.48,3.21,2.76,4.31c1.28,1.1,2.8,1.64,4.56,1.64
			c1.8,0,3.38-0.57,4.74-1.7c1.36-1.13,2.38-2.8,3.07-5.01c0.69-2.21,1.03-4.64,1.03-7.3c0-2.17-0.27-4.14-0.8-5.91
			c-0.53-1.77-1.43-3.2-2.68-4.27C798.55,750.05,797.02,749.52,795.22,749.52z"/>
		<path class="st4" d="M849.11,782.2c-1.81-0.05-3.2-0.08-4.16-0.08c-1.21,0-2.59,0.03-4.13,0.08l0.06-6.5
			c-0.58,1.1-1.08,1.98-1.51,2.64s-1,1.32-1.69,1.96c-0.7,0.64-1.46,1.15-2.28,1.53c-0.82,0.38-1.76,0.69-2.82,0.94
			c-1.06,0.25-2.18,0.37-3.37,0.37c-2.3,0-4.3-0.42-6-1.27c-1.7-0.85-3.05-2.13-4.05-3.86s-1.49-4.19-1.49-7.4v-0.82l0.5-10.1
			l0.47-13.31c0.02-1.07,0.03-2.4,0.03-3.99c1.95,0.05,3.47,0.08,4.58,0.08c1.17,0,2.58-0.03,4.24-0.08l-1.02,17.85
			c-0.06,1.38-0.11,2.55-0.14,3.5c-0.03,0.95-0.05,1.64-0.05,2.05c0,1.88,0.22,3.44,0.66,4.68c0.44,1.24,1.21,2.19,2.31,2.84
			c1.1,0.65,2.27,0.98,3.52,0.98c1.19,0,2.32-0.29,3.38-0.86c0.96-0.52,1.79-1.25,2.48-2.19c0.69-0.94,1.27-2.21,1.74-3.8
			c0.35-1.15,0.62-2.74,0.8-4.78c0.14-1.43,0.28-3.9,0.4-7.4c0.17-4.23,0.29-8.52,0.35-12.88c2.03,0.05,3.59,0.08,4.66,0.08
			c1.21,0,2.58-0.03,4.1-0.08c-0.25,3.73-0.5,8.4-0.77,13.99c-0.27,5.6-0.45,10.22-0.55,13.86
			C849.25,773.88,849.17,777.87,849.11,782.2z"/>
		<path class="st4" d="M853.45,791.47c1.4-4.88,2.94-10.54,4.62-16.99c2.24,0.05,3.82,0.08,4.74,0.08c0.74,0,2.26-0.03,4.56-0.08
			c-0.82,1.77-1.69,3.59-2.6,5.46s-1.85,3.86-2.8,5.97c-0.95,2.11-1.81,3.95-2.57,5.52c-1.29-0.05-2.27-0.08-2.92-0.08
			C855.67,791.36,854.66,791.4,853.45,791.47z"/>
		<path class="st4" d="M923.77,772.41c-0.45,3.05-0.84,6.16-1.17,9.32c-2.34,0.52-4.49,0.89-6.44,1.1
			c-1.95,0.21-3.62,0.31-5.02,0.31c-3.08,0-6.02-0.55-8.82-1.64c-2.8-1.1-5.33-2.82-7.58-5.19c-2.25-2.36-3.87-5.23-4.88-8.59
			s-1.51-7.05-1.51-11.04c0-4.33,0.61-8.34,1.82-12.02c1.21-3.68,2.95-6.78,5.22-9.32c2.27-2.53,4.95-4.42,8.05-5.66
			c3.1-1.24,6.33-1.86,9.7-1.86c3.33,0,6.96,0.48,10.9,1.45c0.06,2.32,0.12,3.97,0.19,4.93l0.21,4.19c-2.32-0.78-4.25-1.32-5.79-1.6
			c-1.54-0.29-3.01-0.43-4.4-0.43c-2.2,0-4.31,0.42-6.33,1.27c-2.02,0.85-3.81,2.2-5.36,4.05c-1.55,1.85-2.74,4.09-3.57,6.71
			c-0.83,2.62-1.25,5.36-1.25,8.2c0,3.39,0.51,6.43,1.54,9.12c1.03,2.69,2.67,4.87,4.94,6.54c2.27,1.67,5.08,2.5,8.42,2.5
			C915.76,774.76,919.46,773.98,923.77,772.41z"/>
		<path class="st4" d="M929.75,782.2l0.73-12.72l0.74-18.2l0.43-22.51c1.81,0.05,3.31,0.08,4.5,0.08c1.56,0,3.05-0.03,4.47-0.08
			l-0.56,9.32c-0.12,2.3-0.29,5.99-0.49,11.08c0.66-1.25,1.21-2.19,1.65-2.82c0.44-0.63,0.93-1.21,1.48-1.74
			c0.54-0.53,1.1-0.98,1.68-1.35c0.58-0.37,1.25-0.69,2.02-0.98c0.77-0.29,1.63-0.51,2.57-0.67s1.91-0.23,2.89-0.23
			c1.7,0,3.34,0.25,4.91,0.74c1.57,0.5,2.93,1.33,4.06,2.51c1.14,1.17,1.92,2.55,2.34,4.13c0.42,1.58,0.63,3.23,0.63,4.95
			c0,1.12-0.05,2.87-0.16,5.25l-0.75,17.1c-0.06,1.77-0.09,3.82-0.09,6.15c-1.66-0.05-3.13-0.08-4.4-0.08
			c-1.37,0-2.94,0.03-4.71,0.08c0.28-3.08,0.56-7.28,0.84-12.6s0.41-9.11,0.41-11.35c0-2.06-0.26-3.67-0.78-4.83
			c-0.52-1.16-1.29-2.02-2.31-2.58c-1.01-0.56-2.13-0.84-3.33-0.84c-1.56,0-2.93,0.35-4.12,1.06c-1.15,0.68-2.11,1.7-2.89,3.05
			c-0.63,1.12-1.17,2.73-1.6,4.81c-0.45,2.19-0.78,5.58-0.98,10.18c-0.1,2.22-0.22,6.59-0.34,13.11c-1.62-0.05-3.02-0.08-4.19-0.08
			C933.29,782.12,931.74,782.15,929.75,782.2z"/>
		<path class="st4" d="M970.3,782.2c0.31-3.91,0.53-7.19,0.66-9.82c0.21-4.17,0.39-8.99,0.55-14.44c0.16-5.45,0.27-10.63,0.33-15.54
			c2,0.05,3.5,0.08,4.5,0.08c0.92,0,2.41-0.03,4.47-0.08c-0.28,4.54-0.5,8.87-0.67,13c-0.17,4.12-0.29,8.85-0.37,14.17
			s-0.12,9.54-0.12,12.64c-1.87-0.05-3.37-0.08-4.5-0.08C974.07,782.12,972.46,782.15,970.3,782.2z M971.98,735.58
			c0.08-2.69,0.12-4.75,0.12-6.18v-1.25c1.87,0.05,3.39,0.08,4.56,0.08c1.6,0,3.09-0.03,4.46-0.08c-0.06,0.65-0.1,1.4-0.12,2.23
			l-0.15,5.21c-1.56-0.05-3-0.08-4.31-0.08S973.71,735.53,971.98,735.58z"/>
		<path class="st4" d="M986.89,782.2c0.47-5.92,0.86-12.58,1.18-19.96c0.32-7.38,0.5-14,0.54-19.84c1.89,0.05,3.4,0.08,4.53,0.08
			c1.33,0,2.75-0.03,4.25-0.08l-0.34,6.65c0.64-1.15,1.2-2.06,1.68-2.74s1.1-1.34,1.85-2c0.75-0.65,1.55-1.17,2.4-1.57
			c0.85-0.39,1.81-0.7,2.86-0.94c1.06-0.23,2.16-0.35,3.31-0.35c1.83,0,3.58,0.29,5.25,0.88c1.67,0.59,3.02,1.52,4.05,2.8
			c1.03,1.28,1.7,2.67,2.03,4.19c0.33,1.51,0.49,3.12,0.49,4.81c0,0.7-0.03,1.83-0.09,3.37l-0.64,17.1
			c-0.08,2.37-0.13,4.91-0.15,7.59c-1.62-0.05-3.01-0.08-4.16-0.08c-1.56,0-3.13,0.03-4.72,0.08c0.17-2.27,0.37-6.23,0.62-11.88
			c0.25-5.65,0.37-9.39,0.37-11.21c0-2.06-0.26-3.72-0.77-4.97c-0.51-1.25-1.31-2.2-2.38-2.86c-1.08-0.65-2.24-0.98-3.49-0.98
			c-1.23,0-2.38,0.3-3.45,0.9c-1.07,0.6-1.99,1.47-2.77,2.62c-0.82,1.17-1.46,2.62-1.91,4.34c-0.47,1.83-0.82,4.84-1.05,9.04
			c-0.21,3.73-0.37,8.73-0.5,14.99c-1.58-0.05-3.01-0.08-4.29-0.08C990.32,782.12,988.74,782.15,986.89,782.2z"/>
		<path class="st4" d="M1029.85,751.12c0.29-1.88,0.47-3.2,0.54-3.95c0.07-0.76,0.2-1.9,0.39-3.44c2.79-0.83,5.25-1.42,7.39-1.76
			c2.13-0.34,4.2-0.51,6.19-0.51c2.26,0,4.33,0.33,6.22,1c1.89,0.67,3.37,1.73,4.43,3.19s1.6,3.56,1.6,6.3
			c0,1.49-0.16,5.28-0.49,11.37c-0.33,6.09-0.52,12.39-0.58,18.89c-1.56-0.05-3-0.08-4.31-0.08c-1.25,0-2.72,0.03-4.41,0.08
			c0.27-3.16,0.49-6.81,0.65-10.96l0.41-9.75c-0.78,0.65-1.38,1.11-1.79,1.37c-0.41,0.26-0.87,0.5-1.39,0.72
			c-0.51,0.22-1.42,0.56-2.71,1.02c-1.29,0.46-2.33,0.85-3.11,1.19c-0.78,0.34-1.48,0.72-2.11,1.15c-0.63,0.43-1.16,0.91-1.59,1.45
			c-0.43,0.54-0.74,1.1-0.94,1.68c-0.2,0.59-0.29,1.22-0.29,1.9c0,1.1,0.25,2.04,0.75,2.84c0.5,0.8,1.13,1.35,1.89,1.66
			c0.76,0.31,1.65,0.47,2.68,0.47c0.66,0,1.35-0.06,2.08-0.2c0.73-0.13,1.71-0.46,2.94-0.98c-0.43,1.49-0.93,3.71-1.51,6.65
			c-1.46,0.31-2.62,0.51-3.48,0.59c-0.86,0.08-1.66,0.12-2.4,0.12c-2.59,0-4.71-0.44-6.37-1.33c-1.66-0.89-2.89-2.3-3.68-4.23
			c-0.79-1.93-1.19-3.88-1.19-5.83c0-1.12,0.15-2.23,0.46-3.33c0.31-1.1,0.76-2.1,1.36-3.01s1.37-1.79,2.31-2.64
			c0.95-0.85,2.31-1.67,4.1-2.47c1.79-0.8,4.15-1.6,7.09-2.41c0.78-0.21,1.59-0.46,2.43-0.76c0.84-0.3,1.52-0.59,2.02-0.88
			s0.94-0.66,1.31-1.12c0.37-0.46,0.64-0.93,0.82-1.43c0.17-0.5,0.26-1,0.26-1.53c0-1.02-0.26-1.88-0.79-2.58
			c-0.52-0.7-1.2-1.19-2.03-1.47s-1.75-0.41-2.76-0.41C1038.49,747.71,1034.37,748.85,1029.85,751.12z"/>
	</g>
	<g>
		<path class="st4" d="M591.21,611.79c3.06,0,5.99,0.54,8.81,1.6c2.81,1.07,5.31,2.81,7.48,5.23c2.18,2.41,3.82,5.23,4.93,8.44
			c1.11,3.21,1.66,6.95,1.66,11.23c0,4.02-0.52,7.86-1.57,11.53c-1.05,3.67-2.67,6.82-4.86,9.47c-2.2,2.65-4.87,4.61-8.02,5.89
			c-3.15,1.28-6.46,1.92-9.93,1.92c-3.28,0-6.44-0.59-9.47-1.76c-3.03-1.17-5.63-3.01-7.82-5.52c-2.19-2.51-3.75-5.38-4.7-8.63
			s-1.42-6.76-1.42-10.55c0-4.15,0.59-8.11,1.77-11.9c1.18-3.78,2.91-6.91,5.2-9.39c2.29-2.48,4.97-4.36,8.04-5.64
			C584.38,612.43,587.68,611.79,591.21,611.79z M590.72,620.13c-3.1,0-5.8,0.91-8.1,2.72c-2.3,1.81-4.03,4.29-5.19,7.44
			c-1.16,3.14-1.74,6.54-1.74,10.2c0,3.39,0.56,6.52,1.68,9.37c1.12,2.86,2.84,5.04,5.16,6.54c2.32,1.5,4.82,2.25,7.51,2.25
			c2.03,0,3.97-0.44,5.82-1.33c1.85-0.89,3.44-2.24,4.79-4.05c1.34-1.81,2.36-4,3.03-6.56c0.68-2.56,1.02-5.22,1.02-7.99
			c0-2.58-0.3-5.06-0.91-7.44s-1.54-4.42-2.82-6.13c-1.27-1.71-2.81-2.97-4.6-3.8C594.58,620.54,592.69,620.13,590.72,620.13z"/>
		<path class="st4" d="M654.33,656.38c-0.45,3.05-0.84,6.16-1.17,9.32c-2.34,0.52-4.49,0.89-6.44,1.1
			c-1.95,0.21-3.62,0.31-5.02,0.31c-3.08,0-6.02-0.55-8.82-1.64c-2.8-1.1-5.33-2.82-7.58-5.19c-2.25-2.36-3.87-5.23-4.88-8.59
			s-1.51-7.05-1.51-11.04c0-4.33,0.61-8.34,1.82-12.02c1.21-3.68,2.95-6.78,5.22-9.32c2.27-2.53,4.95-4.42,8.05-5.66
			c3.1-1.24,6.33-1.86,9.7-1.86c3.33,0,6.96,0.48,10.9,1.45c0.06,2.32,0.12,3.97,0.19,4.93l0.21,4.19c-2.32-0.78-4.25-1.32-5.79-1.6
			c-1.54-0.29-3.01-0.43-4.4-0.43c-2.2,0-4.31,0.42-6.33,1.27c-2.02,0.85-3.81,2.2-5.36,4.05c-1.55,1.85-2.74,4.09-3.57,6.71
			c-0.83,2.62-1.25,5.36-1.25,8.2c0,3.39,0.51,6.43,1.54,9.12c1.03,2.69,2.67,4.87,4.94,6.54c2.27,1.67,5.08,2.5,8.42,2.5
			C646.32,658.72,650.02,657.94,654.33,656.38z"/>
		<path class="st4" d="M669.82,666.16l0.68-11.43l0.67-17.03l0.43-16.75h-2.15l-2,0.04l-1.91,0.04l-7.1,0.27
			c0.16-3.76,0.26-6.61,0.28-8.57c5.91,0.05,12.1,0.08,18.56,0.08l11.05-0.04l5.91-0.04c-0.21,3.71-0.31,6.57-0.31,8.57
			c-3.72-0.23-7.28-0.35-10.68-0.35h-2.37l-0.37,7.15l-0.88,27.51l-0.06,4.61c-0.02,1.9-0.03,3.88-0.03,5.94l-4.69-0.08
			C674.33,666.08,672.66,666.11,669.82,666.16z"/>
		<path class="st4" d="M712.31,666.16c0.06-0.99,0.09-1.79,0.09-2.39l0.18-5.71c2.57-2.92,4.91-5.74,7.04-8.47
			c2.12-2.72,4.29-5.64,6.51-8.76c2.22-3.11,3.89-5.62,5.02-7.53c0.92-1.54,1.54-2.69,1.85-3.46s0.51-1.42,0.62-1.96
			c0.1-0.53,0.15-1.08,0.15-1.62c0-1.43-0.34-2.6-1.02-3.5c-0.68-0.9-1.61-1.6-2.79-2.11c-1.18-0.51-2.55-0.76-4.11-0.76
			c-1.44,0-3,0.16-4.68,0.48c-1.68,0.32-3.85,0.9-6.5,1.75l0.58-3.95c0.12-0.94,0.31-2.52,0.55-4.74c4.74-1.1,9.3-1.64,13.67-1.64
			c1.99,0,3.91,0.24,5.76,0.72c1.85,0.48,3.49,1.31,4.94,2.47c1.45,1.16,2.5,2.51,3.17,4.03c0.67,1.53,1,3.12,1,4.79
			c0,0.99-0.08,1.98-0.23,2.96s-0.38,1.87-0.66,2.68c-0.55,1.62-1.26,3.25-2.11,4.89c-0.85,1.64-2.19,3.84-4,6.58
			c-1.82,2.74-3.8,5.54-5.94,8.42c-2.15,2.87-4.53,5.88-7.16,9.04h2.8l6.87-0.04c2.28,0,3.95-0.03,5.02-0.1
			c1.07-0.06,2.35-0.19,3.85-0.37c-0.04,0.81-0.11,1.86-0.2,3.15c-0.09,1.29-0.2,3.01-0.32,5.15c-4.66-0.05-9.5-0.08-14.53-0.08
			C721.58,666.08,716.44,666.11,712.31,666.16z"/>
		<path class="st4" d="M758.38,666.16c2.69-4.33,4.96-8.15,6.8-11.46c2.01-3.62,3.75-7,5.2-10.13c1.07-2.32,1.91-4.46,2.54-6.43
			c0.63-1.97,1.05-3.61,1.26-4.93c0.22-1.32,0.32-2.56,0.32-3.73c0-1.93-0.28-3.63-0.83-5.1c-0.55-1.47-1.36-2.59-2.42-3.34
			c-1.06-0.76-2.27-1.13-3.65-1.13c-1.42,0-2.73,0.41-3.94,1.23c-1.21,0.82-2.15,1.95-2.8,3.4c-0.66,1.45-0.99,3.04-0.99,4.78
			c0,1.67,0.24,3.12,0.72,4.35s1.29,2.2,2.43,2.89c1.14,0.69,2.48,1.04,4.02,1.04c0.62,0,1.21-0.06,1.77-0.2
			c0.56-0.13,1.25-0.33,2.05-0.59c-1.44,2.71-2.8,5.43-4.09,8.14c-1.17,0.26-2.22,0.39-3.14,0.39c-2.46,0-4.74-0.62-6.82-1.86
			c-2.08-1.24-3.61-3.01-4.57-5.3c-0.96-2.3-1.45-4.84-1.45-7.63c0-3.5,0.69-6.68,2.06-9.55c1.38-2.87,3.4-5.12,6.07-6.75
			c2.67-1.63,5.74-2.45,9.21-2.45c2.32,0,4.52,0.4,6.59,1.19c2.07,0.8,3.77,2,5.1,3.6s2.3,3.51,2.93,5.71
			c0.62,2.21,0.94,4.34,0.94,6.4c0,1.54-0.14,3.26-0.42,5.17c-0.28,1.91-0.73,3.91-1.36,6.03c-0.63,2.11-1.47,4.52-2.54,7.2
			c-1.07,2.69-2.36,5.49-3.86,8.42c-1.51,2.92-3.4,6.47-5.68,10.65c-1.83-0.03-3.62-0.04-5.39-0.04L758.38,666.16z"/>
		<path class="st4" d="M788.49,649.41c0.18-2.53,0.3-5.17,0.34-7.91c6.08,0.1,11.64,0.16,16.69,0.16c5.05,0,10.62-0.05,16.72-0.16
			c-0.21,2.84-0.33,5.48-0.37,7.91c-6.06-0.13-11.61-0.2-16.66-0.2S794.58,649.28,788.49,649.41z"/>
		<path class="st4" d="M828.33,666.16c0.39-4.67,0.68-9.92,0.89-15.73l0.71-19.18c0.25-6.94,0.37-13.11,0.37-18.51
			c2.38,0.05,4.4,0.08,6.06,0.08c1.23,0,3.03-0.03,5.38-0.08c2.32,5.14,5.53,11.85,9.61,20.12c4.09,8.27,7.39,15.12,9.89,20.55
			l1.13-36.32c0.02-0.86,0.03-2.31,0.03-4.34c1.93,0.05,3.39,0.08,4.38,0.08c0.39,0,1.83-0.03,4.32-0.08l-0.77,14.36l-0.95,24.58
			l-0.37,14.48c-2.14-0.05-3.95-0.08-5.45-0.08c-1.19,0-3.12,0.03-5.79,0.08c-1.03-2.32-1.81-4.04-2.34-5.17
			c-0.84-1.72-2.64-5.27-5.39-10.65c-1.81-3.55-4.07-8.09-6.78-13.62c-1.99-4.07-3.7-7.62-5.11-10.65
			c-0.16,4.23-0.42,12.07-0.76,23.52c-0.14,4.67-0.25,10.19-0.34,16.56c-1.93-0.05-3.33-0.08-4.19-0.08
			C832.18,666.08,830.67,666.11,828.33,666.16z"/>
		<path class="st4" d="M901.83,611.79c3.06,0,5.99,0.54,8.81,1.6c2.81,1.07,5.31,2.81,7.48,5.23c2.18,2.41,3.82,5.23,4.93,8.44
			c1.11,3.21,1.66,6.95,1.66,11.23c0,4.02-0.52,7.86-1.57,11.53c-1.05,3.67-2.67,6.82-4.86,9.47c-2.2,2.65-4.87,4.61-8.02,5.89
			c-3.15,1.28-6.46,1.92-9.93,1.92c-3.28,0-6.44-0.59-9.47-1.76c-3.03-1.17-5.63-3.01-7.82-5.52c-2.19-2.51-3.75-5.38-4.7-8.63
			s-1.42-6.76-1.42-10.55c0-4.15,0.59-8.11,1.77-11.9c1.18-3.78,2.91-6.91,5.2-9.39c2.29-2.48,4.97-4.36,8.04-5.64
			C895,612.43,898.3,611.79,901.83,611.79z M901.33,620.13c-3.1,0-5.8,0.91-8.1,2.72c-2.3,1.81-4.03,4.29-5.19,7.44
			c-1.16,3.14-1.74,6.54-1.74,10.2c0,3.39,0.56,6.52,1.68,9.37c1.12,2.86,2.84,5.04,5.16,6.54c2.32,1.5,4.82,2.25,7.51,2.25
			c2.03,0,3.97-0.44,5.82-1.33c1.85-0.89,3.44-2.24,4.79-4.05c1.34-1.81,2.36-4,3.03-6.56c0.68-2.56,1.02-5.22,1.02-7.99
			c0-2.58-0.3-5.06-0.91-7.44s-1.54-4.42-2.82-6.13c-1.27-1.71-2.81-2.97-4.6-3.8C905.19,620.54,903.31,620.13,901.33,620.13z"/>
		<path class="st4" d="M942.11,666.16l-1.17-4.93c-0.17-0.65-0.84-3.14-2.03-7.48l-5.98-21.61l-5.48-19.41
			c2.11,0.05,3.87,0.08,5.26,0.08c0.86,0,2.37-0.03,4.52-0.08l0.96,4.34c0.21,0.89,0.5,2.09,0.9,3.6l7.47,28.69
			c0.45,1.85,1.04,4.29,1.76,7.32l1.66-4.78c0.41-1.17,1.26-3.47,2.55-6.89l9.69-25.76c0.29-0.76,0.57-1.56,0.86-2.41
			c0.29-0.85,0.74-2.22,1.35-4.13c2.24,0.05,3.94,0.08,5.11,0.08c0.7,0,2.31-0.03,4.83-0.08l-2.65,6.26l-16.83,42.27l-1.78,4.89
			c-2.67-0.05-4.46-0.08-5.36-0.08C946.95,666.08,945.07,666.11,942.11,666.16z"/>
		<path class="st4" d="M990.5,666.16c0.06-0.99,0.09-1.79,0.09-2.39l0.18-5.71c2.57-2.92,4.91-5.74,7.04-8.47
			c2.12-2.72,4.29-5.64,6.51-8.76c2.22-3.11,3.89-5.62,5.02-7.53c0.92-1.54,1.54-2.69,1.85-3.46s0.51-1.42,0.62-1.96
			c0.1-0.53,0.15-1.08,0.15-1.62c0-1.43-0.34-2.6-1.02-3.5c-0.68-0.9-1.61-1.6-2.79-2.11c-1.18-0.51-2.55-0.76-4.11-0.76
			c-1.44,0-3,0.16-4.68,0.48c-1.68,0.32-3.85,0.9-6.5,1.75l0.58-3.95c0.12-0.94,0.31-2.52,0.55-4.74c4.74-1.1,9.3-1.64,13.67-1.64
			c1.99,0,3.91,0.24,5.76,0.72c1.85,0.48,3.49,1.31,4.94,2.47c1.45,1.16,2.5,2.51,3.17,4.03c0.67,1.53,1,3.12,1,4.79
			c0,0.99-0.08,1.98-0.23,2.96s-0.38,1.87-0.66,2.68c-0.55,1.62-1.26,3.25-2.11,4.89c-0.85,1.64-2.19,3.84-4,6.58
			c-1.82,2.74-3.8,5.54-5.94,8.42c-2.15,2.87-4.53,5.88-7.16,9.04h2.8l6.87-0.04c2.28,0,3.95-0.03,5.02-0.1
			c1.07-0.06,2.35-0.19,3.85-0.37c-0.04,0.81-0.11,1.86-0.2,3.15c-0.09,1.29-0.2,3.01-0.32,5.15c-4.66-0.05-9.5-0.08-14.53-0.08
			C999.77,666.08,994.63,666.11,990.5,666.16z"/>
	</g>
</g>
<g id="图层_5">
	<g>
		<path class="st5" d="M47.01,570.93c178.12-1.77,352.19-1.8,521.99,0H47.01z"/>
		<path class="st5" d="M46.06,570.93c178.12,1.77,352.19,1.8,521.99,0H46.06z"/>
	</g>
	<g>
	</g>
	<g>
	</g>
	<g>
	</g>
	<g>
	</g>
	<g>
	</g>
	<g>
	</g>
	<g>
	</g>
	<g>
	</g>
	<g>
	</g>
	<g>
	</g>
	<g>
	</g>
	<g>
	</g>
	<g>
	</g>
	<g>
	</g>
	<g>
	</g>
</g>
</svg>
